<?xml version="1.0" encoding="UTF-8"?>
<!DOCTYPE svg PUBLIC "-//W3C//DTD SVG 1.1//EN" "http://www.w3.org/Graphics/SVG/1.1/DTD/svg11.dtd">
<svg xmlns="http://www.w3.org/2000/svg" version="1.1" width="400px" height="400px" style="shape-rendering:geometricPrecision; text-rendering:geometricPrecision; image-rendering:optimizeQuality; fill-rule:evenodd; clip-rule:evenodd" xmlns:xlink="http://www.w3.org/1999/xlink">
<g><path style="opacity:1" fill="#2ea7e3" d="M 305.5,142.5 C 306.873,142.343 308.207,142.51 309.5,143C 307.946,144.892 306.112,146.392 304,147.5C 303.5,147.167 303,146.833 302.5,146.5C 303.524,145.148 304.524,143.815 305.5,142.5 Z"/></g>
<g><path style="opacity:1" fill="#bd3938" d="M 63.5,150.5 C 75.5152,150.017 81.3486,155.683 81,167.5C 76.8243,178.007 69.6577,180.84 59.5,176C 50.5508,165.806 51.8841,157.306 63.5,150.5 Z"/></g>
<g><path style="opacity:1" fill="#1fa2e4" d="M 360.5,153.5 C 359.523,156.287 359.19,159.287 359.5,162.5C 364.833,162.5 370.167,162.5 375.5,162.5C 375.5,163.5 375.5,164.5 375.5,165.5C 370.5,165.5 365.5,165.5 360.5,165.5C 360.5,168.833 360.5,172.167 360.5,175.5C 365.833,175.5 371.167,175.5 376.5,175.5C 376.5,176.5 376.5,177.5 376.5,178.5C 369.5,178.5 362.5,178.5 355.5,178.5C 355.5,169.167 355.5,159.833 355.5,150.5C 362.5,150.5 369.5,150.5 376.5,150.5C 376.5,151.5 376.5,152.5 376.5,153.5C 371.167,153.5 365.833,153.5 360.5,153.5 Z"/></g>
<g><path style="opacity:1" fill="#33a7e5" d="M 322.5,150.5 C 330.382,149.861 338.049,150.694 345.5,153C 352.167,160.667 352.167,168.333 345.5,176C 343.608,176.973 341.608,177.64 339.5,178C 333.843,178.499 328.176,178.666 322.5,178.5C 322.5,169.167 322.5,159.833 322.5,150.5 Z"/></g>
<g><path style="opacity:1" fill="#fbfdfd" d="M 327.5,153.5 C 332.777,152.931 337.777,153.765 342.5,156C 344.888,158.306 345.888,161.139 345.5,164.5C 346.037,169.928 343.704,173.428 338.5,175C 334.848,175.499 331.182,175.665 327.5,175.5C 327.5,168.167 327.5,160.833 327.5,153.5 Z"/></g>
<g><path style="opacity:1" fill="#33a7e4" d="M 241.5,149.5 C 246.536,149.062 251.369,149.728 256,151.5C 256.483,152.448 256.649,153.448 256.5,154.5C 251.871,153.519 247.204,153.352 242.5,154C 239.946,156.269 239.946,158.602 242.5,161C 247.929,161.77 252.929,163.603 257.5,166.5C 259.676,172.649 257.676,176.816 251.5,179C 246.139,179.609 240.805,179.442 235.5,178.5C 235.34,176.801 235.506,175.134 236,173.5C 241.735,177.423 247.402,177.423 253,173.5C 253.743,171.559 253.576,169.726 252.5,168C 247.85,166.669 243.183,165.335 238.5,164C 233.898,158.063 234.898,153.229 241.5,149.5 Z"/></g>
<g><path style="opacity:1" fill="#83cfef" d="M 360.5,153.5 C 360.5,156.167 360.5,158.833 360.5,161.5C 365.695,161.179 370.695,161.513 375.5,162.5C 370.167,162.5 364.833,162.5 359.5,162.5C 359.19,159.287 359.523,156.287 360.5,153.5 Z"/></g>
<g><path style="opacity:1" fill="#23a3e3" d="M 271.5,150.5 C 273.527,150.338 275.527,150.505 277.5,151C 281.903,159.64 285.903,168.473 289.5,177.5C 287.955,178.452 286.288,178.785 284.5,178.5C 284.158,172.663 280.991,170.329 275,171.5C 272.5,171.667 270,171.833 267.5,172C 266.692,174.088 265.692,176.088 264.5,178C 263.207,178.49 261.873,178.657 260.5,178.5C 264.167,169.167 267.833,159.833 271.5,150.5 Z"/></g>
<g><path style="opacity:1" fill="#eff8fc" d="M 274.5,154.5 C 276.725,158.623 278.725,162.956 280.5,167.5C 276.893,168.489 273.226,168.823 269.5,168.5C 270.784,163.644 272.451,158.977 274.5,154.5 Z"/></g>
<g><path style="opacity:1" fill="#3ba9e5" d="M 291.5,150.5 C 293.167,150.5 294.833,150.5 296.5,150.5C 296.334,157.508 296.5,164.508 297,171.5C 298.32,174.901 300.82,176.235 304.5,175.5C 308.18,176.235 310.68,174.901 312,171.5C 312.5,164.508 312.666,157.508 312.5,150.5C 314.167,150.5 315.833,150.5 317.5,150.5C 317.896,158.253 317.396,165.92 316,173.5C 313.236,177.767 309.236,179.767 304,179.5C 298.929,179.931 295.262,177.931 293,173.5C 291.604,165.92 291.104,158.253 291.5,150.5 Z"/></g>
<g><path style="opacity:1" fill="#18588f" d="M 111.5,251.5 C 103.414,251.801 95.4144,251.467 87.5,250.5C 81.3962,232.958 74.7296,215.624 67.5,198.5C 60.2989,216.106 53.2989,233.773 46.5,251.5C 38.6484,251.825 30.9818,251.492 23.5,250.5C 32.7145,229.735 42.2145,209.069 52,188.5C 62.3333,187.167 72.6667,187.167 83,188.5C 93.0602,209.284 102.56,230.284 111.5,251.5 Z"/></g>
<g><path style="opacity:1" fill="#6e97ba" d="M 291.5,187.5 C 291.5,208.833 291.5,230.167 291.5,251.5C 297.5,251.5 303.5,251.5 309.5,251.5C 309.5,251.833 309.5,252.167 309.5,252.5C 303.167,252.5 296.833,252.5 290.5,252.5C 290.169,230.66 290.503,208.994 291.5,187.5 Z"/></g>
<g><path style="opacity:1" fill="#5c88af" d="M 375.5,187.5 C 376.497,208.994 376.831,230.66 376.5,252.5C 369.978,252.823 363.645,252.49 357.5,251.5C 363.5,251.5 369.5,251.5 375.5,251.5C 375.5,230.167 375.5,208.833 375.5,187.5 Z"/></g>
<g><path style="opacity:1" fill="#7ba0c1" d="M 174.5,189.5 C 175.812,194.015 175.812,198.682 174.5,203.5C 173.893,203.376 173.56,203.043 173.5,202.5C 174.485,198.366 174.818,194.032 174.5,189.5 Z"/></g>
<g><path style="opacity:1" fill="#8eadc9" d="M 241.5,189.5 C 242.812,194.015 242.812,198.682 241.5,203.5C 240.893,203.376 240.56,203.043 240.5,202.5C 241.485,198.366 241.818,194.032 241.5,189.5 Z"/></g>
<g><path style="opacity:1" fill="#17578f" d="M 291.5,187.5 C 299.86,187.169 308.193,187.502 316.5,188.5C 321.942,199.719 327.608,210.719 333.5,221.5C 339.407,210.688 345.073,199.688 350.5,188.5C 358.807,187.502 367.14,187.169 375.5,187.5C 375.5,208.833 375.5,230.167 375.5,251.5C 369.5,251.5 363.5,251.5 357.5,251.5C 357.667,236.496 357.5,221.496 357,206.5C 351.245,217.01 345.745,227.677 340.5,238.5C 335.833,239.833 331.167,239.833 326.5,238.5C 322.059,229.282 317.392,220.282 312.5,211.5C 311.955,209.407 311.122,207.407 310,205.5C 309.5,220.83 309.333,236.163 309.5,251.5C 303.5,251.5 297.5,251.5 291.5,251.5C 291.5,230.167 291.5,208.833 291.5,187.5 Z"/></g>
<g><path style="opacity:1" fill="#e0e9f1" d="M 312.5,211.5 C 310.839,224.969 309.839,238.636 309.5,252.5C 309.5,252.167 309.5,251.833 309.5,251.5C 309.333,236.163 309.5,220.83 310,205.5C 311.122,207.407 311.955,209.407 312.5,211.5 Z"/></g>
<g><path style="opacity:1" fill="#1a588f" d="M 174.5,189.5 C 174.818,194.032 174.485,198.366 173.5,202.5C 162.727,198.473 151.727,197.639 140.5,200C 135.915,205.057 136.915,208.723 143.5,211C 152.738,212.038 161.738,214.038 170.5,217C 179.129,222.137 181.962,229.637 179,239.5C 176.458,246.862 171.292,251.028 163.5,252C 148.965,254.472 134.631,253.639 120.5,249.5C 120.181,244.637 120.514,239.97 121.5,235.5C 129.457,238.905 137.79,240.905 146.5,241.5C 150.708,241.614 154.708,240.781 158.5,239C 161.893,234.036 160.893,230.369 155.5,228C 145.326,227.074 135.659,224.407 126.5,220C 116.92,210.034 117.253,200.367 127.5,191C 133.783,187.114 140.616,185.614 148,186.5C 156.956,186.577 165.789,187.577 174.5,189.5 Z"/></g>
<g><path style="opacity:1" fill="#19588f" d="M 241.5,189.5 C 241.818,194.032 241.485,198.366 240.5,202.5C 230.453,198.975 220.12,197.809 209.5,199C 203.799,201.832 203.133,205.498 207.5,210C 216.476,212.107 225.476,214.107 234.5,216C 245.652,220.138 249.485,227.971 246,239.5C 243.333,246.097 238.5,250.263 231.5,252C 216.349,254.83 201.683,253.663 187.5,248.5C 187.182,243.968 187.515,239.634 188.5,235.5C 200.435,241.493 212.769,242.66 225.5,239C 228.592,234.882 227.925,231.549 223.5,229C 214.379,227.175 205.379,224.842 196.5,222C 185.138,214.086 183.471,204.419 191.5,193C 195.221,190.473 199.221,188.473 203.5,187C 216.315,185.941 228.982,186.774 241.5,189.5 Z"/></g>
<g><path style="opacity:1" fill="#b9cfdf" d="M 121.5,235.5 C 120.514,239.97 120.181,244.637 120.5,249.5C 119.186,244.652 119.186,239.652 120.5,234.5C 121.107,234.624 121.44,234.957 121.5,235.5 Z"/></g>
<g><path style="opacity:1" fill="#a3bfd6" d="M 188.5,235.5 C 187.515,239.634 187.182,243.968 187.5,248.5C 186.188,243.985 186.188,239.318 187.5,234.5C 188.107,234.624 188.44,234.957 188.5,235.5 Z"/></g>
<g><path style="opacity:1" fill="#5585ad" d="M 23.5,250.5 C 30.9818,251.492 38.6484,251.825 46.5,251.5C 38.6572,252.82 30.6572,252.82 22.5,251.5C 22.6236,250.893 22.9569,250.56 23.5,250.5 Z"/></g>
<g><path style="opacity:1" fill="#5687af" d="M 87.5,250.5 C 95.4144,251.467 103.414,251.801 111.5,251.5C 107.681,252.166 103.681,252.499 99.5,252.5C 95.107,252.491 91.107,251.824 87.5,250.5 Z"/></g>
<g><path style="opacity:1" fill="#87a7c6" d="M 258.5,187.5 C 258.5,208.833 258.5,230.167 258.5,251.5C 264.833,251.5 271.167,251.5 277.5,251.5C 277.5,230.167 277.5,208.833 277.5,187.5C 278.497,208.994 278.831,230.66 278.5,252.5C 271.5,252.5 264.5,252.5 257.5,252.5C 257.169,230.66 257.503,208.994 258.5,187.5 Z"/></g>
<g><path style="opacity:1" fill="#15578e" d="M 258.5,187.5 C 264.833,187.5 271.167,187.5 277.5,187.5C 277.5,208.833 277.5,230.167 277.5,251.5C 271.167,251.5 264.833,251.5 258.5,251.5C 258.5,230.167 258.5,208.833 258.5,187.5 Z"/></g>
</svg>
