<svg width="758" height="473" viewBox="0 0 758 473" fill="none" xmlns="http://www.w3.org/2000/svg">
<g clip-path="url(#clip0_3705_38296)">
<path d="M198.104 288.266C277.747 288.266 342.31 223.736 342.31 144.133C342.31 64.5306 277.747 0 198.104 0C118.462 0 53.8984 64.5306 53.8984 144.133C53.8984 223.736 118.462 288.266 198.104 288.266Z" fill="#F2F2F2"/>
<path d="M0 34.6074C0 87.0488 32.9155 129.484 73.5928 129.484L0 34.6074Z" fill="#4B4653"/>
<path d="M73.5938 129.483C73.5938 76.4527 110.326 33.541 155.719 33.541L73.5938 129.483Z" fill="#3857F4"/>
<path d="M26.6641 39.3613C26.6641 89.175 47.6537 129.484 73.5928 129.484L26.6641 39.3613Z" fill="#3857F4"/>
<path d="M73.5938 129.483C73.5938 61.7222 116.05 6.89062 168.518 6.89062L73.5938 129.483Z" fill="#4B4653"/>
<path d="M58.1094 130.152C58.1094 130.152 68.546 129.831 71.6914 127.592C74.8367 125.354 87.7456 122.681 88.5259 126.271C89.3062 129.861 104.21 144.127 92.4273 144.222C80.6444 144.317 65.049 142.388 61.9097 140.477C58.7704 138.565 58.1094 130.152 58.1094 130.152Z" fill="#A8A8A8"/>
<path opacity="0.2" d="M92.6376 142.973C80.8547 143.068 65.2593 141.138 62.12 139.227C59.7292 137.771 58.7766 132.548 58.4578 130.139C58.237 130.148 58.1094 130.152 58.1094 130.152C58.1094 130.152 58.7704 138.565 61.9097 140.477C65.049 142.388 80.6444 144.317 92.4273 144.222C95.8286 144.195 97.0035 142.985 96.9389 141.194C96.4664 142.276 95.1692 142.952 92.6376 142.973Z" fill="black"/>
<path d="M134.462 304.466C204.383 304.466 261.066 296.758 261.066 287.251C261.066 277.743 204.383 270.036 134.462 270.036C64.5415 270.036 7.85938 277.743 7.85938 287.251C7.85938 296.758 64.5415 304.466 134.462 304.466Z" fill="#CBC8D0"/>
<path opacity="0.1" d="M134.462 301.704C193.166 301.704 240.755 295.233 240.755 287.251C240.755 279.269 193.166 272.798 134.462 272.798C75.7587 272.798 28.1699 279.269 28.1699 287.251C28.1699 295.233 75.7587 301.704 134.462 301.704Z" fill="black"/>
<path d="M566.402 473C672.218 473 757.999 461.336 757.999 446.948C757.999 432.559 672.218 420.896 566.402 420.896C460.586 420.896 374.805 432.559 374.805 446.948C374.805 461.336 460.586 473 566.402 473Z" fill="#CBC8D0"/>
<path d="M210.289 452.447C273.854 452.447 325.383 445.44 325.383 436.797C325.383 428.154 273.854 421.147 210.289 421.147C146.725 421.147 95.1953 428.154 95.1953 436.797C95.1953 445.44 146.725 452.447 210.289 452.447Z" fill="#CBC8D0"/>
<path d="M313.195 423.602C374.127 439.166 491.252 403.302 504.116 362.701" stroke="#4B4653" stroke-width="2" stroke-miterlimit="10"/>
<path d="M209.611 175.261C209.611 175.261 297.624 150.9 303.04 229.395C308.457 307.89 230.599 330.22 291.531 345.784" stroke="#4B4653" stroke-width="2" stroke-miterlimit="10"/>
<path d="M124.58 363.57C124.58 363.57 151.033 356.248 152.661 379.84C154.289 403.433 130.888 410.144 149.202 414.822" stroke="#4B4653" stroke-width="2" stroke-miterlimit="10"/>
<path d="M527.199 381.134L521.866 415.168C521.866 415.168 495.609 429.11 514.071 429.52C532.532 429.93 619.506 429.52 619.506 429.52C619.506 429.52 636.326 429.52 609.66 414.758L604.326 379.084L527.199 381.134Z" fill="#4B4653"/>
<path opacity="0.1" d="M510.359 429.15C514.552 425.422 521.868 421.536 521.868 421.536L527.201 387.502L604.328 387.575L609.662 421.126C615.88 424.569 619.732 427.208 621.986 429.232C625.411 428.451 629.154 425.548 609.662 414.758L604.328 379.084L527.201 381.134L521.868 415.168C521.868 415.168 499.805 426.884 510.359 429.15Z" fill="black"/>
<path d="M726.878 143.922H403.829C397.081 143.922 391.611 149.389 391.611 156.133V373.638C391.611 380.382 397.081 385.849 403.829 385.849H726.878C733.625 385.849 739.095 380.382 739.095 373.638V156.133C739.095 149.389 733.625 143.922 726.878 143.922Z" fill="#4B4653"/>
<path d="M727.404 156.839H403.305V338.079H727.404V156.839Z" fill="#CBC8D0"/>
<path d="M565.354 153.148C566.487 153.148 567.405 152.23 567.405 151.098C567.405 149.966 566.487 149.048 565.354 149.048C564.221 149.048 563.303 149.966 563.303 151.098C563.303 152.23 564.221 153.148 565.354 153.148Z" fill="#F2F2F2"/>
<path d="M739.095 352.431V373.638C739.095 375.242 738.779 376.83 738.165 378.311C737.551 379.793 736.652 381.139 735.517 382.273C734.383 383.407 733.036 384.307 731.553 384.92C730.071 385.534 728.482 385.85 726.878 385.849H403.829C402.224 385.85 400.635 385.534 399.153 384.92C397.671 384.307 396.324 383.407 395.189 382.273C394.055 381.139 393.155 379.793 392.541 378.311C391.927 376.83 391.611 375.242 391.611 373.638V352.431H739.095Z" fill="#4B4653"/>
<path d="M656.019 451.661V455.762H435.303V452.481L435.607 451.661L441.047 436.899H651.506L656.019 451.661Z" fill="#4B4653"/>
<path d="M740.957 447.647C740.555 449.365 739.037 451.178 735.607 452.892C723.299 459.042 698.274 451.252 698.274 451.252C698.274 451.252 678.992 447.971 678.992 439.36C679.534 438.99 680.098 438.654 680.682 438.356C685.857 435.62 703.014 428.868 733.434 438.642C735.675 439.345 737.677 440.656 739.217 442.429C740.45 443.871 741.416 445.701 740.957 447.647Z" fill="#4B4653"/>
<path opacity="0.1" d="M740.958 447.647C725.893 453.417 712.466 453.847 698.685 444.281C691.736 439.459 685.422 438.265 680.684 438.356C685.858 435.619 703.015 428.868 733.436 438.642C735.677 439.345 737.679 440.656 739.218 442.429C740.451 443.871 741.417 445.701 740.958 447.647Z" fill="black"/>
<path d="M722.07 444.28C725.015 444.28 727.403 443.546 727.403 442.64C727.403 441.734 725.015 441 722.07 441C719.124 441 716.736 441.734 716.736 442.64C716.736 443.546 719.124 444.28 722.07 444.28Z" fill="#F2F2F2"/>
<path d="M565.353 377.033C569.658 377.033 573.148 373.545 573.148 369.242C573.148 364.939 569.658 361.451 565.353 361.451C561.048 361.451 557.559 364.939 557.559 369.242C557.559 373.545 561.048 377.033 565.353 377.033Z" fill="#F2F2F2"/>
<path opacity="0.1" d="M656.019 451.661V455.762H435.303V452.481L435.607 451.661H656.019Z" fill="black"/>
<path d="M214.352 107.592H73.5312V271.349H214.352V107.592Z" fill="#4B4653"/>
<path d="M228.568 91.3516H59.3125V149.546H228.568V91.3516Z" fill="#CBC8D0"/>
<path d="M228.568 160.373H59.3125V218.568H228.568V160.373Z" fill="#CBC8D0"/>
<path d="M228.568 229.395H59.3125V287.589H228.568V229.395Z" fill="#CBC8D0"/>
<path opacity="0.4" d="M194.719 101.502H183.887V112.329H194.719V101.502Z" fill="#0B29C1"/>
<path opacity="0.8" d="M210.289 101.502H199.457V112.329H210.289V101.502Z" fill="#0B29C1"/>
<path d="M225.862 101.502H215.029V112.329H225.862V101.502Z" fill="#3857F4"/>
<path opacity="0.4" d="M194.719 169.847H183.887V180.674H194.719V169.847Z" fill="#0B29C1"/>
<path opacity="0.8" d="M210.289 169.847H199.457V180.674H210.289V169.847Z" fill="#0B29C1"/>
<path d="M225.86 169.847H215.027V180.674H225.86V169.847Z" fill="#3857F4"/>
<path opacity="0.4" d="M194.719 238.191H183.887V249.018H194.719V238.191Z" fill="#0B29C1"/>
<path opacity="0.8" d="M210.289 238.191H199.457V249.018H210.289V238.191Z" fill="#0B29C1"/>
<path d="M225.862 238.191H215.029V249.018H225.862V238.191Z" fill="#3857F4"/>
<path d="M214.352 417.512C243.891 417.512 267.837 393.578 267.837 364.054C267.837 334.531 243.891 310.597 214.352 310.597C184.813 310.597 160.867 334.531 160.867 364.054C160.867 393.578 184.813 417.512 214.352 417.512Z" fill="#4B4653"/>
<path d="M206.227 406.009H189.979V435.106H206.227V406.009Z" fill="#4B4653"/>
<path d="M238.725 406.009H222.477V435.106H238.725V406.009Z" fill="#4B4653"/>
<path d="M203.519 440.519C210.997 440.519 217.059 438.247 217.059 435.444C217.059 432.641 210.997 430.369 203.519 430.369C196.041 430.369 189.979 432.641 189.979 435.444C189.979 438.247 196.041 440.519 203.519 440.519Z" fill="#4B4653"/>
<path d="M236.017 439.843C243.495 439.843 249.557 437.57 249.557 434.767C249.557 431.965 243.495 429.692 236.017 429.692C228.539 429.692 222.477 431.965 222.477 434.767C222.477 437.57 228.539 439.843 236.017 439.843Z" fill="#4B4653"/>
<path d="M215.705 368.791C225.801 368.791 233.985 360.611 233.985 350.52C233.985 340.43 225.801 332.25 215.705 332.25C205.61 332.25 197.426 340.43 197.426 350.52C197.426 360.611 205.61 368.791 215.705 368.791Z" fill="white"/>
<path d="M215.705 356.611C219.07 356.611 221.798 353.884 221.798 350.521C221.798 347.157 219.07 344.431 215.705 344.431C212.339 344.431 209.611 347.157 209.611 350.521C209.611 353.884 212.339 356.611 215.705 356.611Z" fill="#645D6F"/>
<path d="M162.468 314.34C158.15 295.009 171.955 275.476 193.303 270.711C214.651 265.947 235.458 277.755 239.776 297.087C244.095 316.418 229.947 323.547 208.599 328.312C187.251 333.076 166.787 333.671 162.468 314.34Z" fill="#8FCC00"/>
<path d="M264.516 353.392C278.094 347.584 287.622 339.421 285.798 335.161C283.973 330.901 271.487 332.156 257.909 337.964C244.331 343.773 234.803 351.935 236.628 356.196C238.452 360.456 250.938 359.201 264.516 353.392Z" fill="#4B4653"/>
<path d="M164.317 389.257C177.895 383.448 187.423 375.286 185.599 371.025C183.774 366.765 171.288 368.02 157.71 373.828C144.132 379.637 134.604 387.799 136.428 392.06C138.253 396.32 150.739 395.065 164.317 389.257Z" fill="#4B4653"/>
<path d="M245.494 379.618C245.494 384.85 232.016 395.182 217.059 395.182C202.103 395.182 187.947 385.527 187.947 380.295C187.947 375.063 202.103 376.235 217.059 376.235C232.016 376.235 245.494 374.386 245.494 379.618Z" fill="white"/>
</g>
<defs>
<clipPath id="clip0_3705_38296">
<rect width="758" height="473" fill="white"/>
</clipPath>
</defs>
</svg>
