<svg width="631" height="588" viewBox="0 0 631 588" fill="none" xmlns="http://www.w3.org/2000/svg">
<g clip-path="url(#clip0_3705_38257)">
<path d="M292.695 552.91C293.447 567.246 285.187 572.696 274.674 573.247C264.162 573.797 255.378 569.239 254.626 554.905C253.875 540.572 279.42 518.27 279.42 518.27C279.42 518.27 291.944 538.577 292.695 552.91Z" fill="#E0FF99"/>
<path d="M266.913 570.287L269.805 558.626L281.066 545.973L270.261 556.802L271.561 551.558L279.438 542.342L271.904 550.166L274.244 540.736L282.011 533.744L274.612 539.254L278.715 521.92L272.805 544.76L273.074 543.824L269.234 533.359L272.556 545.621L269.565 556.062L269.614 555.778L264.975 544.63L269.363 556.764L268.989 558.07L268.972 558.087L268.952 558.196L261.355 584.695L263.234 585.129L266.658 571.328L275.9 562.37L266.913 570.287Z" fill="#C2FF33"/>
<path d="M459.049 213.205C458.593 213.173 458.143 213.089 457.707 212.955L404.098 196.514C402.799 196.12 401.673 195.296 400.905 194.178C400.136 193.059 399.772 191.712 399.87 190.359L409.115 57.4257C409.175 56.5651 409.42 55.7276 409.833 54.9701C410.245 54.2126 410.817 53.5529 411.508 53.0361C412.198 52.5193 412.992 52.1575 413.836 51.9753C414.679 51.7931 415.552 51.7948 416.394 51.9803L468.655 63.4872C469.059 63.5755 469.473 63.611 469.886 63.5926L527.153 60.9904C527.595 60.9699 528.039 60.9989 528.475 61.0767L585.438 71.1921C586.898 71.4487 588.211 72.2375 589.124 73.4059C590.036 74.5744 590.482 76.0396 590.377 77.5181L582.311 193.43C582.243 194.441 581.919 195.418 581.37 196.269C580.821 197.121 580.064 197.819 579.17 198.297L557.923 209.749C556.924 210.288 555.791 210.533 554.658 210.453L520.99 208.109C520.749 208.093 520.506 208.095 520.265 208.115L459.971 213.198C459.664 213.224 459.356 213.226 459.049 213.205Z" fill="white"/>
<path d="M552.433 74.0992L545.198 72.8149L526.027 69.4129L525.994 69.4061L496.959 70.727L486.183 71.2175L486.179 71.2155L469.997 71.9503L469.602 71.8637L454.678 68.5785L447.464 66.9933L418.051 60.5165L409.122 188.844L438.362 197.813L445.533 200.01L460.815 204.698L460.991 204.754L519.42 199.827L552.5 202.127L573.328 190.901L581.104 79.1917L552.433 74.0992Z" fill="#CBC8D0"/>
<path d="M579.827 97.5964L416.264 86.2251L415.757 93.5142L579.32 104.885L579.827 97.5964Z" fill="white"/>
<path d="M578.137 121.888L414.574 110.517L414.067 117.806L577.63 129.177L578.137 121.888Z" fill="white"/>
<path d="M574.723 170.958L411.16 159.587L410.653 166.876L574.216 178.247L574.723 170.958Z" fill="white"/>
<path d="M552.434 74.1016L543.57 201.505L536.282 200.999L545.2 72.8173L552.434 74.1016Z" fill="white"/>
<path d="M496.956 70.7267L477.368 90.4748L470.572 97.3291L454.722 113.311L451.329 116.73L447.926 120.164L443.455 124.669L411.336 157.05L412.112 145.9L438.303 119.494L444.231 113.514L445.098 112.642L452.107 105.572L460.949 96.6571L467.744 89.805L486.178 71.2184L496.956 70.7267Z" fill="white"/>
<path opacity="0.1" d="M520.612 199.908L519.426 199.825L460.997 204.753L460.82 204.695L469.603 71.8671L469.998 71.9537L486.182 71.2189L496.958 70.728L525.995 69.4064L526.03 69.4136L520.612 199.908Z" fill="black"/>
<path d="M459.003 213.843C458.499 213.807 458 213.715 457.517 213.566L403.909 197.125C402.471 196.69 401.225 195.778 400.375 194.54C399.524 193.302 399.121 191.811 399.23 190.313L408.476 57.3792C408.543 56.4267 408.813 55.4998 409.27 54.6614C409.727 53.823 410.359 53.093 411.124 52.521C411.888 51.9491 412.767 51.5486 413.701 51.3469C414.634 51.1453 415.6 51.1472 416.532 51.3524L468.792 62.8623C469.141 62.9383 469.498 62.969 469.856 62.9535L527.123 60.3513C527.613 60.3288 528.103 60.3608 528.586 60.4468L585.549 70.5622C587.165 70.8452 588.618 71.7172 589.628 73.0097C590.638 74.3021 591.132 75.9231 591.016 77.5591L582.95 193.471C582.875 194.589 582.517 195.671 581.909 196.613C581.301 197.556 580.463 198.328 579.475 198.858L558.228 210.309C557.122 210.906 555.869 211.176 554.615 211.088L520.945 208.747C520.736 208.733 520.527 208.734 520.318 208.752L460.024 213.835C459.684 213.864 459.343 213.866 459.003 213.843ZM415.385 53.769C414.305 53.6945 413.239 54.0519 412.423 54.7626C411.606 55.4733 411.105 56.4792 411.03 57.5592L401.781 190.49C401.713 191.411 401.961 192.327 402.484 193.088C403.007 193.849 403.773 194.41 404.657 194.677L458.266 211.118C458.764 211.271 459.287 211.327 459.806 211.284L520.101 206.2C520.44 206.172 520.781 206.17 521.12 206.193L554.79 208.533C555.561 208.588 556.333 208.423 557.014 208.056L578.26 196.605C578.868 196.279 579.383 195.805 579.757 195.225C580.131 194.646 580.351 193.981 580.397 193.293L588.463 77.3819C588.533 76.3768 588.229 75.3811 587.609 74.5871C586.988 73.7932 586.096 73.2572 585.103 73.0827L528.136 62.9654C527.839 62.9137 527.538 62.894 527.237 62.9067L469.971 65.5106C469.391 65.5357 468.809 65.4857 468.241 65.362L415.98 53.855C415.784 53.8118 415.585 53.7831 415.384 53.7694L415.385 53.769Z" fill="#CBC8D0"/>
<path d="M454.681 68.5789L445.536 200.01L438.366 197.812L447.467 66.9937L454.681 68.5789Z" fill="white"/>
<path d="M446.019 119.313C447.725 120.108 449.754 119.37 450.55 117.664C451.345 115.957 450.607 113.929 448.901 113.133C447.194 112.337 445.165 113.076 444.37 114.782C443.574 116.489 444.312 118.517 446.019 119.313Z" fill="#3F3D56"/>
<path d="M554.046 173.69C555.752 174.485 557.781 173.747 558.577 172.04C559.373 170.334 558.634 168.306 556.928 167.51C555.221 166.714 553.193 167.453 552.397 169.159C551.601 170.866 552.339 172.894 554.046 173.69Z" fill="#3857F4"/>
<path d="M582.763 115.378C582.014 126.138 563.69 154.408 557.68 163.424C557.49 163.709 557.227 163.939 556.919 164.091C556.611 164.242 556.268 164.309 555.926 164.285C555.584 164.262 555.254 164.148 554.97 163.955C554.685 163.763 554.457 163.499 554.308 163.19C549.602 153.431 535.369 122.896 536.117 112.135C536.548 105.95 539.418 100.189 544.096 96.1199C548.774 92.0505 554.877 90.0058 561.063 90.4358C567.249 90.8657 573.01 93.7351 577.079 98.4126C581.149 103.09 583.194 109.193 582.763 115.378Z" fill="#3857F4"/>
<path d="M554.087 125.234C560.426 128.189 567.96 125.447 570.916 119.108C573.872 112.77 571.13 105.237 564.791 102.281C558.453 99.3259 550.918 102.068 547.962 108.406C545.006 114.744 547.749 122.278 554.087 125.234Z" fill="white"/>
<path d="M264.592 587.479H256.98V141.404C256.98 140.395 257.381 139.427 258.095 138.713C258.809 138 259.777 137.599 260.786 137.599C261.796 137.599 262.764 138 263.478 138.713C264.191 139.427 264.592 140.395 264.592 141.404V587.479Z" fill="#4B4653"/>
<path d="M332.243 587.899H182.121C181.994 587.928 181.862 587.928 181.734 587.899C181.607 587.87 181.488 587.813 181.386 587.732C181.284 587.651 181.201 587.548 181.145 587.43C181.088 587.312 181.059 587.184 181.059 587.053C181.059 586.923 181.088 586.794 181.145 586.676C181.201 586.559 181.284 586.456 181.386 586.374C181.488 586.293 181.607 586.236 181.734 586.207C181.862 586.178 181.994 586.178 182.121 586.208H332.243C332.37 586.178 332.502 586.178 332.629 586.207C332.756 586.236 332.875 586.293 332.978 586.374C333.08 586.456 333.162 586.559 333.219 586.676C333.275 586.794 333.305 586.923 333.305 587.053C333.305 587.184 333.275 587.312 333.219 587.43C333.162 587.548 333.08 587.651 332.978 587.732C332.875 587.813 332.756 587.87 332.629 587.899C332.502 587.928 332.37 587.928 332.243 587.899Z" fill="#E5E3E8"/>
<path d="M317.409 195.947H206.661C205.652 195.946 204.685 195.544 203.971 194.831C203.258 194.118 202.857 193.151 202.855 192.142V160.007C202.857 158.998 203.258 158.031 203.971 157.318C204.685 156.604 205.652 156.203 206.661 156.202H317.418C318.067 156.202 318.706 156.369 319.273 156.685L347.913 172.666C348.504 172.995 348.996 173.476 349.339 174.059C349.682 174.641 349.863 175.304 349.865 175.98C349.866 176.656 349.688 177.321 349.347 177.905C349.007 178.489 348.517 178.972 347.928 179.304L319.28 195.456C318.709 195.778 318.065 195.947 317.409 195.947Z" fill="#3857F4"/>
<path d="M307.302 265.289H196.555C195.901 265.288 195.257 265.119 194.687 264.798L166.038 248.646C165.449 248.314 164.959 247.831 164.619 247.247C164.279 246.663 164.1 245.999 164.102 245.323C164.103 244.647 164.285 243.983 164.628 243.401C164.971 242.818 165.463 242.337 166.053 242.008L194.694 226.027C195.261 225.711 195.899 225.544 196.548 225.544H307.305C308.314 225.545 309.282 225.946 309.995 226.66C310.708 227.373 311.11 228.34 311.111 229.349V261.483C311.11 262.492 310.708 263.459 309.995 264.172C309.282 264.886 308.314 265.287 307.305 265.288L307.302 265.289Z" fill="#CBC8D0"/>
<path d="M307.726 333.363H196.979C196.325 333.363 195.681 333.194 195.111 332.873L166.462 316.72C165.873 316.388 165.383 315.905 165.043 315.321C164.702 314.737 164.524 314.073 164.525 313.397C164.527 312.721 164.709 312.057 165.052 311.475C165.395 310.892 165.887 310.412 166.477 310.082L195.118 294.101C195.685 293.785 196.323 293.619 196.972 293.618H307.729C308.738 293.619 309.705 294.021 310.419 294.734C311.132 295.447 311.534 296.414 311.535 297.423V329.557C311.534 330.566 311.132 331.533 310.419 332.247C309.705 332.96 308.738 333.361 307.729 333.362L307.726 333.363Z" fill="#CBC8D0"/>
<path d="M65.531 442.017L64.2293 487.566L50.3453 540.925C50.3453 540.925 53.3824 550.034 51.213 552.204C49.0436 554.374 39.0645 558.278 39.0645 558.278L47.3073 444.62L65.531 442.017Z" fill="#090814"/>
<path d="M35.389 551.981C35.389 551.981 30.438 562.872 37.369 563.863C44.3 564.853 76.317 567.491 74.337 561.883C72.3569 556.275 48.2617 550.992 48.2617 550.992L35.389 551.981Z" fill="#090814"/>
<path d="M16.9395 401.673C16.9395 401.673 22.146 429.87 25.617 434.644C29.088 439.418 23.8815 474.12 23.8815 474.12C23.8815 474.12 16.0717 524.008 19.5427 531.816C23.0137 539.624 22.146 537.022 21.7121 541.36C21.2782 545.698 20.4105 549.169 21.7121 553.073C23.0137 556.976 23.0137 556.543 23.4476 558.713C23.8815 560.882 23.4476 572.595 23.4476 572.595C23.4476 572.595 42.1036 579.102 45.1415 569.558C45.1415 569.558 40.8027 563.485 42.1043 558.713C43.4616 553.911 44.1908 548.953 44.2737 543.963V534.851L64.2321 460.233L69.0048 433.335C69.0048 433.335 67.7031 406.006 62.9305 403.403C58.1578 400.8 16.9395 401.673 16.9395 401.673Z" fill="#090814"/>
<path d="M24.7481 570.423C24.7481 570.423 18.2399 584.738 27.3513 586.041C36.4627 587.343 78.5489 590.813 75.9456 583.438C73.3423 576.063 41.6709 569.122 41.6709 569.122L24.7481 570.423Z" fill="#090814"/>
<path d="M32.9969 276.755C42.5814 276.755 50.3512 268.986 50.3512 259.402C50.3512 249.819 42.5814 242.05 32.9969 242.05C23.4124 242.05 15.6426 249.819 15.6426 259.402C15.6426 268.986 23.4124 276.755 32.9969 276.755Z" fill="#FFB9B9"/>
<path d="M20.8008 267.07L21.1242 289.23L42.4008 289.301C42.4008 289.301 37.001 271.954 39.4196 268.326C41.8383 264.699 20.8008 267.07 20.8008 267.07Z" fill="#FFB9B9"/>
<path d="M52.5156 301.463C52.5156 301.463 37.3307 281.941 25.6152 290.183C13.8997 298.425 9.5625 317.948 9.5625 317.948L12.1658 372.61C12.1658 372.61 18.6739 380.419 14.769 385.625C10.8641 390.831 8.69474 389.53 11.7319 393.434C14.769 397.339 18.2401 400.375 16.9384 401.677C15.6368 402.978 18.2401 403.846 18.2401 403.846L64.2311 405.148C64.2311 405.148 62.9294 403.412 66.8343 398.206C70.7392 393 65.9666 386.059 66.8343 383.456C67.7021 380.853 68.5699 383.89 69.0037 377.816C69.4376 371.743 52.5156 301.463 52.5156 301.463Z" fill="#E5E3E8"/>
<path d="M48.1758 413.385C48.1758 413.385 49.0435 424.23 55.5517 425.965C57.9925 426.616 59.8227 425.375 61.1574 423.571C62.4036 421.841 63.1023 419.778 63.163 417.647C63.2238 415.516 62.6438 413.416 61.4982 411.618L59.8905 409.047L48.1758 413.385Z" fill="#FFB9B9"/>
<path d="M8.04134 279.555C8.04134 279.555 7.60747 288.232 8.04134 289.532C8.47522 290.833 8.9091 292.135 8.04134 293.437C7.17359 294.738 7.60746 299.076 8.47521 299.51C9.34297 299.944 6.7397 303.849 7.60745 306.452C8.14039 307.985 8.86958 309.443 9.77684 310.79C10.2107 311.657 10.9097 313.212 10.9097 313.212C10.9097 313.212 23.6609 286.062 34.074 292.569C44.4871 299.076 52.7299 301.246 52.7299 301.246C52.7299 301.246 47.0903 270.879 8.04134 279.555Z" fill="#E5E3E8"/>
<path d="M26.9176 299.724C26.9176 299.724 13.0335 301.026 13.9012 319.246C14.769 337.466 12.5996 366.099 12.5996 366.099C12.5996 366.099 36.4621 402.541 40.3678 405.144C44.2734 407.747 44.7065 407.313 44.2727 409.482C43.8388 411.651 43.4049 413.387 45.1404 415.122C46.165 416.153 47.3343 417.03 48.6114 417.725C48.6114 417.725 62.4955 412.953 61.1931 408.615C59.8907 404.278 53.8172 397.336 53.8172 397.336C53.8172 397.336 43.4041 380.417 42.971 377.814C42.538 375.211 42.5372 375.645 41.2355 374.344C39.9339 373.042 36.4629 367.836 36.4629 365.234V356.99L40.1003 312.943C40.2654 311.149 40.049 309.34 39.4653 307.636C38.8817 305.932 37.9439 304.37 36.7137 303.054C35.4766 301.742 33.9371 300.752 32.2295 300.172C30.5219 299.591 28.6982 299.438 26.9176 299.724Z" fill="#E5E3E8"/>
<path opacity="0.1" d="M14.7109 372.297L39.0657 403.899C39.0657 403.899 16.6397 385.155 14.7109 372.297Z" fill="black"/>
<path opacity="0.1" d="M38.0878 337.309L37.8574 367.154L52.0026 388.373L40.4291 364.585L38.0878 337.309Z" fill="black"/>
<path d="M28.4267 270.273C29.5024 269.29 30.9148 268.779 32.1583 268.019C34.3442 266.587 35.9447 264.42 36.6696 261.909C37.3945 259.399 37.1959 256.712 36.1098 254.336C35.7547 253.752 35.4978 253.113 35.3493 252.446C35.1504 250.937 36.3995 249.608 37.7516 248.897C39.1038 248.186 40.6388 247.842 41.8712 246.948C42.7903 246.21 43.501 245.244 43.9331 244.147C44.3652 243.05 44.5038 241.86 44.3352 240.693C43.9623 238.354 42.8594 236.193 41.1841 234.518L41.0537 236.146C40.0897 235.682 39.2753 234.956 38.7032 234.052C38.1393 234.303 37.6494 234.695 37.2802 235.19C36.9111 235.684 36.6753 236.265 36.5952 236.877C35.8906 237.584 35.2477 235.6 34.2519 235.541C33.8347 235.595 33.4523 235.802 33.1782 236.121C31.5503 237.465 29.207 237.284 27.0966 237.32C23.4427 237.388 19.856 238.314 16.6264 240.025C14.4242 241.082 12.5663 242.741 11.2674 244.81C10.3624 246.595 9.81585 248.541 9.65857 250.536C9.04875 255.407 9.12861 260.486 10.9316 265.053C12.4152 268.788 14.9715 271.999 18.2783 274.283C20.0052 275.466 25.7072 279.668 27.8425 278.144C30.525 276.232 25.3972 273.036 28.4267 270.273Z" fill="#090814"/>
</g>
<defs>
<clipPath id="clip0_3705_38257">
<rect width="631" height="588" fill="white"/>
</clipPath>
</defs>
</svg>
