<svg width="608" height="584" viewBox="0 0 608 584" fill="none" xmlns="http://www.w3.org/2000/svg">
<g clip-path="url(#clip0_3705_38211)">
<path d="M92.1387 206.955C92.1387 206.955 101.656 238.378 98.8008 242.189C95.946 246 129.255 221.241 129.255 221.241C129.255 221.241 116.883 212.671 121.639 200.292L92.1387 206.955Z" fill="#9F616A"/>
<path d="M511.69 138.389H508.496V50.7327C508.496 37.2776 503.154 24.3735 493.645 14.8593C484.136 5.34504 471.239 6.61768e-09 457.791 6.61768e-09H272.177C265.518 -0.000107599 258.924 1.31206 252.772 3.86156C246.62 6.41107 241.031 10.148 236.322 14.859C231.614 19.57 227.879 25.1627 225.33 31.318C222.782 37.4732 221.471 44.0703 221.471 50.7327V531.62C221.471 545.075 226.813 557.979 236.322 567.494C245.831 577.008 258.728 582.353 272.176 582.353H457.788C471.236 582.352 484.132 577.007 493.641 567.493C503.149 557.979 508.491 545.075 508.491 531.62V200.784H511.685L511.69 138.389Z" fill="#090814"/>
<path d="M498.095 47.3346V535.017C498.094 545.217 494.045 555 486.837 562.214C479.629 569.428 469.853 573.484 459.658 573.489H270.23C260.029 573.49 250.246 569.437 243.031 562.221C235.817 555.005 231.763 545.217 231.762 535.011V47.3354C231.765 37.1303 235.819 27.3442 243.033 20.1296C250.246 12.9151 260.029 8.8628 270.229 8.8641H293.206C292.078 11.6402 291.649 14.6511 291.956 17.6321C292.263 20.6132 293.297 23.4731 294.968 25.9605C296.638 28.4479 298.894 30.4867 301.537 31.8976C304.179 33.3086 307.127 34.0484 310.123 34.0522H418.116C421.111 34.0485 424.059 33.3086 426.702 31.8976C429.344 30.4867 431.6 28.4478 433.271 25.9603C434.941 23.4727 435.976 20.6127 436.283 17.6315C436.59 14.6504 436.16 11.6394 435.032 8.86328H459.645C469.84 8.86458 479.617 12.9163 486.827 20.1278C494.037 27.3393 498.09 37.1202 498.095 47.3207V47.3346Z" fill="white"/>
<path d="M364.894 243.109C408.57 243.109 443.976 207.684 443.976 163.984C443.976 120.285 408.57 84.8596 364.894 84.8596C321.219 84.8596 285.812 120.285 285.812 163.984C285.812 207.684 321.219 243.109 364.894 243.109Z" fill="#3857F4"/>
<path d="M451.142 328.245H282.818C281.992 328.244 281.199 327.915 280.615 327.33C280.031 326.746 279.702 325.953 279.701 325.126V283.351C279.702 282.524 280.031 281.732 280.615 281.147C281.2 280.562 281.992 280.234 282.818 280.232H451.142C451.968 280.234 452.76 280.562 453.345 281.147C453.929 281.732 454.258 282.524 454.259 283.351V325.124C454.258 325.95 453.929 326.743 453.345 327.328C452.76 327.912 451.968 328.241 451.142 328.242V328.245ZM282.818 281.479C282.322 281.479 281.847 281.676 281.496 282.027C281.145 282.378 280.948 282.854 280.948 283.35V325.124C280.948 325.62 281.145 326.096 281.496 326.447C281.847 326.797 282.322 326.995 282.818 326.995H451.142C451.638 326.995 452.113 326.797 452.464 326.447C452.815 326.096 453.012 325.62 453.012 325.124V283.35C453.012 282.854 452.815 282.378 452.464 282.027C452.113 281.676 451.638 281.479 451.142 281.479H282.818Z" fill="#CBC8D0"/>
<path d="M334.875 295.277C334.303 295.288 333.759 295.523 333.359 295.931C332.959 296.34 332.734 296.889 332.734 297.46C332.734 298.032 332.959 298.581 333.359 298.989C333.759 299.398 334.303 299.633 334.875 299.644H437.734C438.309 299.66 438.867 299.448 439.287 299.055C439.707 298.661 439.955 298.118 439.976 297.543C439.998 296.968 439.792 296.407 439.402 295.983C439.013 295.56 438.473 295.307 437.898 295.28H437.802H334.875V295.277Z" fill="#CBC8D0"/>
<path d="M334.873 308.375C334.295 308.375 333.74 308.605 333.331 309.014C332.921 309.424 332.691 309.979 332.691 310.558C332.691 311.137 332.921 311.693 333.331 312.102C333.74 312.512 334.295 312.742 334.873 312.742H437.733C438.308 312.758 438.866 312.546 439.286 312.152C439.706 311.759 439.953 311.216 439.975 310.641C439.997 310.066 439.79 309.505 439.401 309.081C439.012 308.658 438.472 308.405 437.897 308.377H437.801H334.873V308.375Z" fill="#CBC8D0"/>
<path d="M451.142 397.878H282.818C281.992 397.877 281.199 397.548 280.615 396.963C280.031 396.379 279.702 395.586 279.701 394.759V352.984C279.702 352.157 280.031 351.365 280.615 350.78C281.2 350.195 281.992 349.866 282.818 349.865H451.142C451.968 349.866 452.76 350.195 453.345 350.78C453.929 351.365 454.258 352.157 454.259 352.984V394.761C454.257 395.587 453.927 396.378 453.343 396.961C452.759 397.545 451.967 397.873 451.142 397.874V397.878ZM282.818 351.112C282.322 351.113 281.847 351.31 281.496 351.661C281.145 352.012 280.948 352.488 280.948 352.984V394.761C280.948 395.257 281.145 395.733 281.496 396.083C281.847 396.434 282.322 396.632 282.818 396.632H451.142C451.638 396.632 452.113 396.434 452.464 396.083C452.815 395.733 453.012 395.257 453.012 394.761V352.984C453.012 352.488 452.815 352.012 452.464 351.661C452.113 351.31 451.638 351.113 451.142 351.112H282.818Z" fill="#CBC8D0"/>
<path d="M334.873 365.135C334.295 365.135 333.74 365.365 333.331 365.774C332.921 366.184 332.691 366.739 332.691 367.318C332.691 367.897 332.921 368.452 333.331 368.862C333.74 369.271 334.295 369.501 334.873 369.501H437.733C438.022 369.509 438.309 369.459 438.578 369.355C438.847 369.251 439.093 369.095 439.301 368.895C439.51 368.696 439.676 368.457 439.792 368.192C439.907 367.928 439.969 367.643 439.974 367.354C439.978 367.065 439.926 366.779 439.819 366.51C439.712 366.242 439.554 365.998 439.352 365.792C439.15 365.585 438.91 365.421 438.644 365.308C438.378 365.195 438.093 365.136 437.804 365.135H334.873Z" fill="#CBC8D0"/>
<path d="M334.873 378.236C334.295 378.236 333.74 378.466 333.331 378.876C332.921 379.285 332.691 379.841 332.691 380.42C332.691 380.999 332.921 381.554 333.331 381.963C333.74 382.373 334.295 382.603 334.873 382.603H437.733C438.022 382.611 438.309 382.561 438.578 382.457C438.847 382.353 439.093 382.197 439.301 381.997C439.51 381.797 439.676 381.558 439.792 381.294C439.907 381.029 439.969 380.744 439.974 380.456C439.978 380.167 439.926 379.88 439.819 379.612C439.712 379.344 439.554 379.1 439.352 378.893C439.15 378.687 438.91 378.522 438.644 378.41C438.378 378.297 438.093 378.238 437.804 378.236H334.873Z" fill="#CBC8D0"/>
<path d="M451.142 467.737H282.818C281.992 467.736 281.199 467.407 280.615 466.823C280.031 466.238 279.702 465.445 279.701 464.618V422.843C279.702 422.016 280.031 421.224 280.615 420.639C281.2 420.055 281.992 419.726 282.818 419.725H451.142C451.968 419.726 452.76 420.055 453.345 420.639C453.929 421.224 454.258 422.016 454.259 422.843V464.62C454.258 465.447 453.929 466.239 453.345 466.824C452.76 467.409 451.968 467.737 451.142 467.739V467.737ZM282.818 420.972C282.322 420.972 281.847 421.169 281.496 421.52C281.145 421.871 280.948 422.347 280.948 422.843V464.62C280.948 465.116 281.145 465.592 281.496 465.943C281.847 466.294 282.322 466.491 282.818 466.491H451.142C451.638 466.491 452.113 466.294 452.464 465.943C452.815 465.592 453.012 465.116 453.012 464.62V422.843C453.012 422.347 452.815 421.871 452.464 421.52C452.113 421.169 451.638 420.972 451.142 420.972H282.818Z" fill="#CBC8D0"/>
<path d="M334.873 434.998C334.295 434.998 333.74 435.228 333.331 435.637C332.921 436.047 332.691 436.602 332.691 437.181C332.691 437.76 332.921 438.316 333.331 438.725C333.74 439.135 334.295 439.365 334.873 439.365H437.733C438.308 439.381 438.866 439.169 439.286 438.776C439.706 438.382 439.953 437.839 439.975 437.264C439.997 436.689 439.79 436.128 439.401 435.704C439.012 435.281 438.472 435.028 437.897 435H437.801H334.873V434.998Z" fill="#CBC8D0"/>
<path d="M334.873 448.098C334.295 448.098 333.74 448.328 333.331 448.737C332.921 449.147 332.691 449.702 332.691 450.281C332.691 450.86 332.921 451.415 333.331 451.825C333.74 452.234 334.295 452.464 334.873 452.464H437.733C438.308 452.48 438.866 452.269 439.286 451.875C439.706 451.482 439.953 450.938 439.975 450.363C439.997 449.788 439.79 449.228 439.401 448.804C439.012 448.38 438.472 448.127 437.897 448.1H437.801H334.873V448.098Z" fill="#CBC8D0"/>
<path d="M606.413 583.877H1.58712C0.71003 583.877 0 583.493 0 583.02C0 582.548 0.710849 582.164 1.58712 582.164H606.414C607.29 582.164 608.001 582.548 608.001 583.02C608.001 583.493 607.29 583.877 606.413 583.877Z" fill="#E6E6E6"/>
<path d="M580.798 550.475C578.214 551.384 575.439 551.611 572.742 551.136C570.044 550.66 567.515 549.498 565.397 547.76C560.002 543.231 558.311 535.768 556.935 528.857L552.865 508.417L561.386 514.288C567.515 518.509 573.78 522.867 578.024 528.982C582.268 535.097 584.12 543.445 580.71 550.062" fill="#E0FF99"/>
<path d="M579.482 576.643C580.555 568.825 581.658 560.906 580.906 553.005C580.237 545.987 578.098 539.133 573.741 533.512C571.428 530.535 568.615 527.984 565.426 525.974C564.595 525.449 563.829 526.767 564.657 527.29C570.174 530.779 574.442 535.931 576.844 542.003C579.497 548.755 579.923 556.116 579.464 563.288C579.188 567.626 578.602 571.935 578.012 576.235C577.965 576.429 577.994 576.634 578.093 576.808C578.192 576.982 578.353 577.112 578.544 577.172C578.739 577.224 578.946 577.198 579.122 577.098C579.297 576.998 579.426 576.834 579.481 576.639L579.482 576.643Z" fill="#F0FFCC"/>
<path d="M571.761 564.099C570.653 565.784 569.13 567.155 567.338 568.081C565.546 569.006 563.547 569.454 561.532 569.381C556.354 569.136 552.036 565.52 548.15 562.089L536.656 551.928L544.263 551.565C549.734 551.302 555.346 551.058 560.561 552.746C565.775 554.434 570.577 558.497 571.529 563.89" fill="#E0FF99"/>
<path d="M582.512 581.138C577.353 571.997 571.36 561.838 560.659 558.59C557.683 557.691 554.563 557.368 551.467 557.641C550.491 557.723 550.735 559.23 551.713 559.146C556.903 558.715 562.083 560.086 566.382 563.029C570.518 565.846 573.738 569.762 576.464 573.915C578.134 576.456 579.629 579.111 581.124 581.76C581.599 582.605 582.996 581.995 582.512 581.138Z" fill="#F0FFCC"/>
<path d="M303.818 317.081C311.049 317.081 316.91 311.217 316.91 303.982C316.91 296.748 311.049 290.884 303.818 290.884C296.588 290.884 290.727 296.748 290.727 303.982C290.727 311.217 296.588 317.081 303.818 317.081Z" fill="#3857F4"/>
<path d="M297.55 301.536C297.399 301.536 297.277 302.513 297.277 303.719C297.277 304.924 297.399 305.902 297.55 305.902H310.423C310.574 305.922 310.698 304.961 310.701 303.755C310.784 303.005 310.692 302.245 310.432 301.536H297.55V301.536Z" fill="#E6E6E6"/>
<path d="M303.818 386.97C311.049 386.97 316.91 381.106 316.91 373.871C316.91 366.637 311.049 360.772 303.818 360.772C296.588 360.772 290.727 366.637 290.727 373.871C290.727 381.106 296.588 386.97 303.818 386.97Z" fill="#3857F4"/>
<path d="M297.55 371.425C297.399 371.425 297.277 372.402 297.277 373.608C297.277 374.813 297.399 375.791 297.55 375.791H310.423C310.574 375.811 310.698 374.85 310.701 373.645C310.784 372.894 310.692 372.134 310.432 371.426L297.55 371.425Z" fill="#E6E6E6"/>
<path d="M303.818 456.829C311.049 456.829 316.91 450.965 316.91 443.731C316.91 436.496 311.049 430.632 303.818 430.632C296.588 430.632 290.727 436.496 290.727 443.731C290.727 450.965 296.588 456.829 303.818 456.829Z" fill="#3857F4"/>
<path d="M297.55 441.284C297.399 441.284 297.277 442.262 297.277 443.467C297.277 444.672 297.399 445.651 297.55 445.651H310.423C310.574 445.67 310.698 444.709 310.701 443.504C310.784 442.753 310.692 441.994 310.432 441.285L297.55 441.284Z" fill="#E6E6E6"/>
<path d="M347.812 142.255L343.18 146.891L381.978 185.71L386.611 181.075L347.812 142.255Z" fill="#F0FFCC"/>
<path d="M386.611 146.895L381.979 142.26L343.18 181.079L347.813 185.715L386.611 146.895Z" fill="#F0FFCC"/>
<path d="M73.9182 373.754C75.053 373.352 76.086 372.706 76.9444 371.861C77.8028 371.017 78.4657 369.994 78.8864 368.866C79.307 367.737 79.4753 366.53 79.3793 365.329C79.2833 364.129 78.9253 362.963 78.3306 361.916L97.6258 339.904L82.5638 337.825L66.5468 359.047C64.8538 360.163 63.6289 361.862 63.1043 363.822C62.5797 365.781 62.7918 367.865 63.7005 369.678C64.6092 371.492 66.1513 372.908 68.0344 373.66C69.9175 374.411 72.0108 374.445 73.9173 373.756L73.9182 373.754Z" fill="#9F616A"/>
<path d="M97.1909 568.835H83.7315L77.3281 516.89H97.1933L97.1909 568.835Z" fill="#9F616A"/>
<path d="M167.65 557.565L154.792 561.557L133.285 513.849L152.257 507.956L167.65 557.565Z" fill="#9F616A"/>
<path d="M86.8852 329.35L66.9512 352.192L82.557 353.597L86.8852 329.35Z" fill="#E5E3E8"/>
<path d="M79.0967 358.792C79.0967 358.792 72.1725 362.255 71.3069 377.844C70.4413 393.432 73.9038 434.136 73.9038 434.136C73.9038 434.136 70.4421 452.321 73.9038 468.775C77.3655 485.228 70.4421 544.978 74.7694 544.978C79.0967 544.978 101.6 547.577 102.465 544.978C103.331 542.38 104.197 503.411 104.197 503.411C104.197 503.411 111.121 483.494 104.197 471.373C104.197 471.373 128.373 513.611 144.01 545.847C147.432 552.902 173.437 544.981 169.11 537.187C164.782 529.393 154.396 493.887 154.396 493.887C154.396 493.887 146.607 467.908 132.759 456.65L139.683 401.227C139.683 401.227 154.397 363.99 145.743 358.794C137.09 353.598 79.0967 358.792 79.0967 358.792Z" fill="#090814"/>
<path d="M105.06 219.369C117.488 219.369 127.563 209.288 127.563 196.853C127.563 184.419 117.488 174.338 105.06 174.338C92.6316 174.338 82.5566 184.419 82.5566 196.853C82.5566 209.288 92.6316 219.369 105.06 219.369Z" fill="#9F616A"/>
<path d="M130.161 219.368L102.186 235.822C102.186 235.822 91.4739 241.857 87.4725 252.275C83.2074 263.378 85.6864 279.01 87.4725 282.584C90.9342 289.512 86.0205 306.832 86.0205 306.832L81.6932 346.667C81.6932 346.667 66.1143 361.388 78.2315 363.12C90.3486 364.852 111.986 362.254 124.969 363.12C137.952 363.986 152.665 365.718 148.337 357.056C144.01 348.395 138.817 342.334 144.01 325.018C148.074 311.465 147.898 260.792 147.629 239.392C147.593 236.452 146.805 233.571 145.341 231.022C143.878 228.474 141.786 226.342 139.267 224.83L130.161 219.368Z" fill="#E5E3E8"/>
<path opacity="0.1" d="M117.614 246.649L120.21 299.473L95.0468 350.458L90.7793 348.834L116.745 301.205L117.614 246.649Z" fill="black"/>
<path opacity="0.1" d="M146.172 310.73V304.666L116.748 353.163L146.172 310.73Z" fill="black"/>
<path d="M89.0894 175.995L85.3722 174.507C85.3722 174.507 93.1522 165.939 103.973 166.684L100.929 163.331C100.929 163.331 108.369 160.351 115.134 168.173C118.689 172.286 122.803 177.12 125.37 182.565H129.355L127.692 186.229L133.512 189.892L127.538 189.237C128.104 192.399 127.91 195.651 126.973 198.724L127.137 201.62C127.137 201.62 120.209 190.895 120.209 189.411V193.131C120.209 193.131 116.489 189.778 116.489 187.543L114.46 190.151L113.445 186.054L100.931 190.151L102.959 186.796L95.1791 187.914L98.2231 183.817C98.2231 183.817 89.4301 188.66 89.0919 192.758C88.7537 196.857 84.3575 202.072 84.3575 202.072L82.3282 198.346C82.3282 198.346 79.2817 181.584 89.0894 175.995Z" fill="#090814"/>
<path d="M103.648 376.205C104.693 375.608 105.595 374.789 106.29 373.805C106.985 372.821 107.456 371.697 107.67 370.512C107.884 369.327 107.835 368.109 107.528 366.944C107.22 365.779 106.661 364.696 105.89 363.771L120.977 338.682L105.783 339.311L93.7852 363.041C92.3175 364.44 91.4139 366.329 91.2454 368.35C91.077 370.371 91.6555 372.384 92.8713 374.007C94.0871 375.63 95.8556 376.75 97.8419 377.155C99.8281 377.561 101.894 377.223 103.648 376.206V376.205Z" fill="#9F616A"/>
<path d="M137.95 230.628L144.441 229.329C144.441 229.329 163.914 243.618 157.856 272.195C151.797 300.772 124.967 344.071 124.967 344.071C124.967 344.071 118.907 351.865 117.177 353.597C115.448 355.328 111.984 353.597 113.716 356.195C115.447 358.793 111.119 360.525 111.119 360.525C111.119 360.525 92.0773 360.525 93.8086 353.597C95.5398 346.669 124.967 297.304 124.967 297.304L120.637 251.408C120.637 251.408 117.176 228.896 137.95 230.628Z" fill="#E5E3E8"/>
<path d="M157.605 557.379C157.605 557.379 148.736 550.872 148.736 554.421C148.736 557.97 138.685 572.168 138.685 572.168C138.685 572.168 122.131 583.999 135.729 583.999C149.327 583.999 155.24 581.632 155.24 581.632L169.43 572.168C169.43 572.168 172.977 568.026 171.795 563.294C170.612 558.562 166.472 552.055 166.472 552.055C166.472 552.055 161.744 558.562 157.605 557.379Z" fill="#090814"/>
<path d="M82.6701 561.595C82.6701 561.595 81.4465 555.474 77.1643 558.535C72.882 561.596 61.2579 570.777 61.2579 570.777C61.2579 570.777 39.8449 575.674 53.3043 581.796C66.7637 587.918 97.353 579.348 97.353 579.348C97.353 579.348 98.5765 559.759 97.353 560.371C96.1295 560.983 83.2818 562.82 82.6701 561.595Z" fill="#090814"/>
</g>
<defs>
<clipPath id="clip0_3705_38211">
<rect width="608" height="584" fill="white"/>
</clipPath>
</defs>
</svg>
