<svg width="14" height="14" viewBox="0 0 14 14" fill="none" xmlns="http://www.w3.org/2000/svg">
<path d="M12.0625 7.56251L13.1875 7.5625C13.4982 7.5625 13.75 7.31066 13.75 7C13.75 6.68933 13.4982 6.4375 13.1875 6.4375L12.0625 6.43751C11.7518 6.43751 11.5 6.68936 11.5 7.00002C11.5 7.31068 11.7518 7.56251 12.0625 7.56251Z" fill="#D7FF7B"/>
<path d="M7 2.5C7 2.18934 7.25184 1.9375 7.5625 1.9375L13.1875 1.93751C13.4982 1.93751 13.75 2.18935 13.75 2.50001C13.75 2.81067 13.4982 3.06251 13.1875 3.06251L7.5625 3.0625C7.25184 3.0625 7 2.81066 7 2.5Z" fill="#D7FF7B"/>
<path d="M7 11.5C7 11.1893 7.25184 10.9375 7.5625 10.9375L13.1875 10.9375C13.4982 10.9375 13.75 11.1894 13.75 11.5C13.75 11.8107 13.4982 12.0625 13.1875 12.0625L7.5625 12.0625C7.25184 12.0625 7 11.8107 7 11.5Z" fill="#D7FF7B"/>
<path d="M0.812506 3.06251L1.93751 3.0625C2.24817 3.0625 2.5 2.81065 2.5 2.49999C2.5 2.18933 2.24815 1.9375 1.93749 1.9375L0.812495 1.93751C0.501835 1.93751 0.249997 2.18936 0.25 2.50002C0.250004 2.81068 0.501846 3.06251 0.812506 3.06251Z" fill="#D7FF7B"/>
<path d="M1.93751 12.0625L0.812505 12.0625C0.501845 12.0625 0.250003 11.8107 0.25 11.5C0.249997 11.1894 0.501835 10.9375 0.812495 10.9375L1.93749 10.9375C2.24815 10.9375 2.5 11.1893 2.5 11.5C2.5 11.8107 2.24817 12.0625 1.93751 12.0625Z" fill="#D7FF7B"/>
<path d="M0.25 7C0.25 6.68934 0.50184 6.4375 0.8125 6.4375H6.4375C6.74816 6.4375 7 6.68934 7 7C7 7.31066 6.74816 7.5625 6.4375 7.5625H0.8125C0.50184 7.5625 0.25 7.31066 0.25 7Z" fill="#D7FF7B"/>
<path d="M4.75 0.8125C3.81802 0.8125 3.0625 1.56802 3.0625 2.5C3.0625 3.43198 3.81802 4.1875 4.75 4.1875C5.68198 4.1875 6.4375 3.43198 6.4375 2.5C6.4375 1.56802 5.68198 0.8125 4.75 0.8125Z" fill="#D7FF7B"/>
<path d="M7.5625 7C7.5625 6.06802 8.31802 5.3125 9.25 5.3125C10.182 5.3125 10.9375 6.06802 10.9375 7C10.9375 7.93198 10.182 8.6875 9.25 8.6875C8.31802 8.6875 7.5625 7.93198 7.5625 7Z" fill="#D7FF7B"/>
<path d="M4.75 9.8125C3.81802 9.8125 3.0625 10.568 3.0625 11.5C3.0625 12.432 3.81802 13.1875 4.75 13.1875C5.68198 13.1875 6.4375 12.432 6.4375 11.5C6.4375 10.568 5.68198 9.8125 4.75 9.8125Z" fill="#D7FF7B"/>
</svg>
