<svg width="226" height="136" viewBox="0 0 226 136" fill="none" xmlns="http://www.w3.org/2000/svg">
<path d="M94.127 102.367C93.436 102.112 92.7451 101.967 92.0542 101.967C91.1814 101.967 90.3451 102.149 89.545 102.512C88.745 102.876 87.9814 103.349 87.2905 103.93C85.545 105.421 83.8358 106.694 82.1631 107.676C80.4903 108.658 78.6721 109.494 76.8175 110.149C74.9266 110.767 72.9265 111.24 70.7447 111.494C68.5628 111.749 66.1264 111.894 63.4718 111.894C58.8535 111.894 54.5625 110.985 50.5261 109.203C46.4897 107.421 42.9623 104.803 39.9441 101.385C36.9258 97.9667 34.5258 93.7483 32.7803 88.73C31.0348 83.7117 30.162 78.0024 30.162 71.5295C30.162 65.0565 31.0348 59.82 32.7803 54.8744C34.5258 49.9288 36.9986 45.7105 40.1259 42.2194C43.2532 38.7284 47.0351 36.0738 51.3988 34.1828C55.7626 32.3282 60.599 31.3828 65.9082 31.3828C68.9628 31.3828 71.6174 31.6009 73.9084 32.0737C76.1993 32.5464 78.163 33.0919 79.8721 33.7464C81.5813 34.401 83.0358 35.1283 84.2722 35.892C85.5086 36.6556 86.6359 37.3829 87.6905 38.0375C88.745 38.6921 89.6905 39.2739 90.636 39.7103C91.5451 40.183 92.5269 40.4012 93.5815 40.4012C95.1452 40.4012 96.3452 40.0739 97.2179 39.4194C98.0907 38.7648 98.818 38.0375 99.4725 37.2011L109.327 24.0007C106.964 21.5279 104.273 19.2733 101.218 17.2369C98.1634 15.2004 94.8179 13.4549 91.2178 11.9639C87.5814 10.5094 83.6904 9.3457 79.5085 8.50931C75.3266 7.67292 70.8901 7.27289 66.1628 7.27289C56.4171 7.27289 47.5442 8.87296 39.4713 12.0367C31.3984 15.2004 24.4892 19.6369 18.7073 25.3462C12.9253 31.0555 8.41616 37.8193 5.17973 45.6741C1.9433 53.5289 0.343262 62.1474 0.343262 71.5295C0.343262 80.9116 1.76147 89.2755 4.56153 97.1302C7.39795 104.985 11.4344 111.785 16.7072 117.531C21.9801 123.277 28.3802 127.749 35.9804 131.022C43.5441 134.259 52.1261 135.895 61.69 135.895C72.1265 135.895 81.1449 134.222 88.7814 130.84C96.4179 127.458 102.745 122.477 107.836 115.858L96.2725 103.676C95.6543 103.058 94.9633 102.585 94.2724 102.33L94.127 102.367Z" fill="#253E99"/>
<path d="M101.4 95.0939C100.709 94.8393 100.018 94.6939 99.3271 94.6939C98.4544 94.6939 97.618 94.8757 96.818 95.2393C96.018 95.603 95.2543 96.0757 94.5634 96.6576C92.8179 98.1485 91.1088 99.4213 89.436 100.403C87.7633 101.385 85.945 102.221 84.0905 102.876C82.1995 103.494 80.1995 103.967 78.0176 104.221C75.8358 104.476 73.3993 104.621 70.7448 104.621C66.1265 104.621 61.8355 103.712 57.799 101.93C53.7626 100.149 50.2352 97.5303 47.217 94.112C44.1988 90.6937 41.7987 86.4754 40.0532 81.4571C38.3077 76.4387 37.435 70.7295 37.435 64.2566C37.435 57.7836 38.3077 52.5471 40.0532 47.6015C41.7987 42.6559 44.2715 38.4376 47.3988 34.9465C50.5262 31.4555 54.3081 28.8009 58.6718 26.9099C63.0355 25.0553 67.872 24.1098 73.1812 24.1098C76.2358 24.1098 78.8904 24.328 81.1813 24.8008C83.4723 25.2735 85.436 25.819 87.1451 26.4735C88.8542 27.1281 90.3088 27.8554 91.5452 28.6191C92.7816 29.3827 93.9089 30.11 94.9634 30.7646C96.018 31.4191 96.9635 32.001 97.9089 32.4374C98.818 32.9101 99.7999 33.1283 100.854 33.1283C102.418 33.1283 103.618 32.801 104.491 32.1465C105.364 31.4919 106.091 30.7646 106.745 29.9282L116.6 16.7278C114.237 14.255 111.546 12.0004 108.491 9.96395C105.436 7.92753 102.091 6.182 98.4908 4.69105C94.8543 3.23645 90.9633 2.07279 86.7814 1.2364C82.5995 0.400013 78.1631 0 73.4357 0C63.6901 0 54.8172 1.60004 46.7443 4.76378C38.6714 7.92751 31.7622 12.364 25.9802 18.0733C20.1983 23.7826 15.6891 30.5464 12.4527 38.4012C9.21625 46.256 7.61621 54.8745 7.61621 64.2566C7.61621 73.6387 9.03442 82.0025 11.8345 89.8573C14.6709 97.7121 18.7073 104.512 23.9802 110.258C29.253 116.004 35.6531 120.476 43.2533 123.749C50.8171 126.986 59.3991 128.622 68.9629 128.622C79.3995 128.622 88.4178 126.949 96.0543 123.567C103.691 120.186 110.018 115.204 115.109 108.585L103.545 96.403C102.927 95.7848 102.236 95.312 101.545 95.0575L101.4 95.0939Z" fill="#D7FF7B"/>
<path d="M212.457 79.2025C208.493 74.6932 202.347 71.4204 194.056 69.384C197.875 68.0021 201.111 66.3657 203.802 64.5111C206.493 62.6565 208.711 60.5473 210.457 58.2564C212.202 55.9654 213.439 53.4926 214.275 50.8743C215.075 48.2561 215.475 45.5287 215.475 42.7286C215.475 37.5284 214.602 32.8374 212.857 28.6554C211.111 24.4371 208.275 20.8734 204.42 17.9278C200.566 14.9823 195.584 12.7277 189.474 11.0913C183.365 9.4912 175.983 8.69116 167.292 8.69116H135.546C127.51 8.69116 121 15.2005 121 23.2371V67.893H86.4178C86.4178 67.2385 86.4178 66.6203 86.4178 66.0748C86.4178 64.4748 85.5814 62.9838 84.1996 62.1474C82.4177 61.0565 80.3086 60.4382 78.0904 60.4382C71.5812 60.4382 66.272 65.7111 66.272 72.2204C66.272 78.7297 71.5448 84.039 78.0904 84.039C80.345 84.039 82.4177 83.4208 84.1996 82.3298C85.5814 81.4934 86.4178 80.0025 86.4178 78.3661V77.1297H121V134.55H171.256C178.783 134.55 185.511 133.568 191.365 131.64C197.256 129.713 202.166 127.022 206.166 123.604C210.166 120.186 213.22 116.149 215.293 111.567C217.366 106.949 218.384 101.967 218.384 96.6212C218.384 89.5301 216.384 83.7481 212.42 79.2025H212.457ZM150.201 30.5464H167.292C170.565 30.5464 173.401 30.8009 175.801 31.3101C178.201 31.8192 180.165 32.6919 181.729 33.892C183.293 35.092 184.42 36.692 185.183 38.6921C185.947 40.6922 186.311 43.165 186.311 46.1469C186.311 49.1288 185.838 51.7471 184.893 53.7471C183.947 55.7472 182.565 57.3472 180.747 58.5109C178.929 59.6746 176.747 60.4746 174.129 60.9474C171.547 61.4201 168.638 61.6383 165.401 61.6383H150.201V30.5464ZM188.784 101.967C188.274 103.931 187.329 105.676 185.947 107.24C184.565 108.803 182.638 110.076 180.202 111.058C177.765 112.04 174.601 112.513 170.747 112.513H150.201V81.1662H170.601C174.274 81.1662 177.329 81.4934 179.765 82.2207C182.202 82.9117 184.129 83.8935 185.583 85.1663C187.038 86.4391 188.093 88.0028 188.711 89.821C189.329 91.6756 189.62 93.7484 189.62 96.0394C189.62 98.0394 189.365 100.039 188.856 102.003L188.784 101.967Z" fill="#253E99"/>
<path d="M219.73 71.9295C215.766 67.4203 209.62 64.1474 201.329 62.111C205.148 60.7292 208.384 59.0928 211.075 57.2382C213.766 55.3835 215.984 53.2744 217.73 50.9834C219.475 48.6924 220.712 46.2196 221.548 43.6014C222.348 40.9831 222.748 38.2557 222.748 35.4556C222.748 30.2555 221.875 25.5644 220.13 21.3825C218.384 17.1642 215.548 13.6004 211.693 10.6549C207.839 7.70931 202.857 5.4547 196.747 3.81829C190.638 2.21824 183.256 1.41821 174.565 1.41821H142.819C134.783 1.41821 128.273 7.92749 128.273 15.9641V60.6201H93.6908C93.6908 59.9655 93.6908 59.3473 93.6908 58.8018C93.6908 57.2018 92.8544 55.7108 91.4725 54.8744C89.6907 53.7835 87.5816 53.1653 85.3633 53.1653C78.8541 53.1653 73.5449 58.4382 73.5449 64.9475C73.5449 71.4568 78.8178 76.766 85.3633 76.766C87.6179 76.766 89.6907 76.1478 91.4725 75.0569C92.8544 74.2205 93.6908 72.7295 93.6908 71.0931V69.8567H128.273V127.277H178.529C186.056 127.277 192.784 126.295 198.638 124.368C204.529 122.44 209.439 119.749 213.439 116.331C217.439 112.913 220.493 108.876 222.566 104.294C224.639 99.6758 225.657 94.6938 225.657 89.3482C225.657 82.2571 223.657 76.4751 219.693 71.9295H219.73ZM157.474 23.2734H174.565C177.838 23.2734 180.674 23.528 183.074 24.0371C185.474 24.5462 187.438 25.419 189.002 26.619C190.565 27.819 191.693 29.4191 192.456 31.4191C193.22 33.4192 193.584 35.892 193.584 38.8739C193.584 41.8558 193.111 44.4741 192.165 46.4742C191.22 48.4742 189.838 50.0743 188.02 51.238C186.202 52.4016 184.02 53.2016 181.402 53.6744C178.82 54.1471 175.911 54.3653 172.674 54.3653H157.474V23.2734ZM196.056 94.6939C195.547 96.6575 194.602 98.4031 193.22 99.9668C191.838 101.53 189.911 102.803 187.474 103.785C185.038 104.767 181.874 105.24 178.02 105.24H157.474V73.8932H177.874C181.547 73.8932 184.602 74.2205 187.038 74.9478C189.475 75.6387 191.402 76.6206 192.856 77.8933C194.311 79.1661 195.366 80.7298 195.984 82.548C196.602 84.4026 196.893 86.4754 196.893 88.7664C196.893 90.7665 196.638 92.7665 196.129 94.7302L196.056 94.6939Z" fill="#D7FF7B"/>
</svg>
