<svg width="62" height="38" viewBox="0 0 62 38" fill="none" xmlns="http://www.w3.org/2000/svg">
<path d="M25.5342 28.3714C25.3461 28.3021 25.158 28.2625 24.9698 28.2625C24.7322 28.2625 24.5045 28.312 24.2867 28.411C24.0689 28.51 23.861 28.6387 23.6728 28.7971C23.1976 29.203 22.7323 29.5496 22.2768 29.8169C21.8214 30.0842 21.3263 30.312 20.8214 30.4902C20.3066 30.6585 19.762 30.7872 19.1679 30.8565C18.5739 30.9258 17.9105 30.9654 17.1878 30.9654C15.9304 30.9654 14.7621 30.7179 13.6631 30.2327C12.5641 29.7476 11.6037 29.0347 10.782 28.104C9.9602 27.1734 9.30674 26.0249 8.8315 24.6585C8.35627 23.2922 8.11864 21.7378 8.11864 19.9754C8.11864 18.213 8.35627 16.7873 8.8315 15.4408C9.30674 14.0942 9.98002 12.9457 10.8315 11.9953C11.683 11.0448 12.7126 10.322 13.9007 9.80715C15.0888 9.3022 16.4056 9.04478 17.8512 9.04478C18.6828 9.04478 19.4056 9.10418 20.0293 9.23289C20.6531 9.36161 21.1877 9.51012 21.6531 9.68834C22.1184 9.86655 22.5144 10.0646 22.8511 10.2725C23.1877 10.4804 23.4946 10.6784 23.7817 10.8566C24.0689 11.0349 24.3263 11.1933 24.5837 11.3121C24.8312 11.4408 25.0985 11.5002 25.3857 11.5002C25.8114 11.5002 26.1381 11.4111 26.3757 11.2329C26.6134 11.0547 26.8114 10.8566 26.9896 10.6289L29.6727 7.0349C29.0292 6.36163 28.2965 5.74778 27.4648 5.19333C26.6332 4.63887 25.7223 4.16363 24.7421 3.75769C23.752 3.36165 22.6926 3.04483 21.554 2.8171C20.4155 2.58938 19.2076 2.48047 17.9205 2.48047C15.2671 2.48047 12.8513 2.91611 10.6533 3.77749C8.4553 4.63887 6.57412 5.84678 4.9999 7.40123C3.42567 8.95567 2.19797 10.7972 1.31679 12.9358C0.435622 15.0744 0 17.421 0 19.9754C0 22.5298 0.386135 24.807 1.1485 26.9456C1.92076 29.0842 3.01975 30.9357 4.45536 32.5001C5.89098 34.0644 7.63351 35.2822 9.70278 36.1733C11.7621 37.0545 14.0987 37.5 16.7027 37.5C19.5442 37.5 21.9996 37.0446 24.0788 36.1238C26.1579 35.203 27.8807 33.8466 29.2668 32.0446L26.1183 28.7278C25.95 28.5595 25.7619 28.4308 25.5738 28.3615L25.5342 28.3714Z" fill="#253E99"/>
<path d="M27.5147 26.3909C27.3265 26.3216 27.1384 26.282 26.9503 26.282C26.7127 26.282 26.485 26.3315 26.2671 26.4305C26.0493 26.5295 25.8414 26.6582 25.6533 26.8166C25.1781 27.2226 24.7127 27.5691 24.2573 27.8364C23.8018 28.1038 23.3068 28.3315 22.8019 28.5097C22.287 28.678 21.7425 28.8067 21.1484 28.876C20.5544 28.9453 19.891 28.9849 19.1683 28.9849C17.9109 28.9849 16.7426 28.7374 15.6436 28.2523C14.5446 27.7671 13.5842 27.0543 12.7624 26.1236C11.9407 25.1929 11.2872 24.0444 10.812 22.6781C10.3367 21.3117 10.0991 19.7573 10.0991 17.9949C10.0991 16.2326 10.3367 14.8068 10.812 13.4603C11.2872 12.1138 11.9605 10.9653 12.812 10.0148C13.6634 9.06429 14.6931 8.34152 15.8812 7.82668C17.0693 7.32173 18.3861 7.06431 19.8316 7.06431C20.6633 7.06431 21.386 7.12371 22.0098 7.25242C22.6335 7.38113 23.1682 7.52965 23.6335 7.70786C24.0989 7.88608 24.4949 8.0841 24.8315 8.29202C25.1681 8.49994 25.4751 8.69796 25.7622 8.87617C26.0493 9.05439 26.3067 9.21281 26.5642 9.33162C26.8117 9.46033 27.079 9.51973 27.3661 9.51973C27.7919 9.51973 28.1186 9.43063 28.3562 9.25241C28.5938 9.07419 28.7919 8.87618 28.9701 8.64845L31.6532 5.05442C31.0096 4.38116 30.277 3.7673 29.4453 3.21285C28.6136 2.6584 27.7028 2.18315 26.7226 1.77722C25.7325 1.38118 24.6731 1.06435 23.5345 0.836631C22.3959 0.60891 21.188 0.5 19.9009 0.5C17.2475 0.5 14.8317 0.935638 12.6337 1.79702C10.4358 2.6584 8.55459 3.86631 6.98036 5.42075C5.40614 6.9752 4.17843 8.81677 3.29726 10.9554C2.41609 13.094 1.98047 15.4405 1.98047 17.9949C1.98047 20.5494 2.3666 22.8266 3.12897 24.9652C3.90123 27.1038 5.00022 28.9552 6.43583 30.5196C7.87145 32.0839 9.61398 33.3017 11.6832 34.1928C13.7426 35.074 16.0792 35.5195 18.6831 35.5195C21.5247 35.5195 23.9801 35.0641 26.0592 34.1433C28.1384 33.2225 29.8611 31.8661 31.2473 30.0641L28.0988 26.7473C27.9305 26.579 27.7424 26.4503 27.5542 26.381L27.5147 26.3909Z" fill="#3858F4"/>
<path d="M57.7519 22.0651C56.6727 20.8374 54.9995 19.9463 52.7421 19.3918C53.7817 19.0156 54.6629 18.57 55.3955 18.0651C56.1282 17.5602 56.7321 16.9859 57.2074 16.3621C57.6826 15.7384 58.0192 15.0651 58.247 14.3523C58.4648 13.6394 58.5737 12.8968 58.5737 12.1344C58.5737 10.7186 58.3361 9.4414 57.8608 8.3028C57.3856 7.15429 56.6133 6.184 55.5638 5.38202C54.5144 4.58005 53.158 3.96619 51.4946 3.52065C49.8313 3.08501 47.8214 2.86719 45.4551 2.86719H36.8117C34.6236 2.86719 32.8514 4.63945 32.8514 6.82755V18.9859H23.4357C23.4357 18.8077 23.4357 18.6394 23.4357 18.4908C23.4357 18.0552 23.208 17.6493 22.8318 17.4215C22.3466 17.1245 21.7724 16.9562 21.1684 16.9562C19.3962 16.9562 17.9507 18.3918 17.9507 20.1641C17.9507 21.9364 19.3863 23.3819 21.1684 23.3819C21.7823 23.3819 22.3466 23.2136 22.8318 22.9165C23.208 22.6888 23.4357 22.2829 23.4357 21.8374V21.5007H32.8514V37.1343H46.5343C48.5838 37.1343 50.4154 36.8669 52.0095 36.3422C53.6134 35.8174 54.95 35.0848 56.0391 34.1541C57.1282 33.2234 57.9598 32.1244 58.5242 30.8769C59.0885 29.6195 59.3658 28.263 59.3658 26.8076C59.3658 24.8769 58.8212 23.3027 57.742 22.0651H57.7519ZM40.7918 8.81764H45.4452C46.3363 8.81764 47.1086 8.88695 47.762 9.02556C48.4155 9.16417 48.9501 9.40179 49.3758 9.72852C49.8016 10.0553 50.1085 10.4909 50.3164 11.0354C50.5243 11.58 50.6234 12.2533 50.6234 13.0651C50.6234 13.877 50.4946 14.5899 50.2372 15.1344C49.9798 15.679 49.6036 16.1146 49.1085 16.4314C48.6135 16.7483 48.0194 16.9661 47.3066 17.0948C46.6036 17.2235 45.8116 17.2829 44.9304 17.2829H40.7918V8.81764ZM51.3065 28.263C51.1679 28.7977 50.9105 29.2729 50.5342 29.6987C50.158 30.1244 49.6333 30.4709 48.9699 30.7383C48.3066 31.0056 47.4452 31.1343 46.3957 31.1343H40.8017V22.5997H46.3561C47.3561 22.5997 48.1877 22.6888 48.8511 22.8868C49.5145 23.075 50.0392 23.3423 50.4352 23.6888C50.8313 24.0354 51.1184 24.4611 51.2867 24.9561C51.455 25.4611 51.5342 26.0254 51.5342 26.6492C51.5342 27.1937 51.4649 27.7383 51.3263 28.2729L51.3065 28.263Z" fill="#253E99"/>
<path d="M59.7324 20.0846C58.6532 18.8569 56.98 17.9658 54.7226 17.4114C55.7622 17.0351 56.6433 16.5896 57.376 16.0846C58.1087 15.5797 58.7126 15.0054 59.1879 14.3817C59.6631 13.7579 59.9997 13.0847 60.2274 12.3718C60.4452 11.6589 60.5542 10.9163 60.5542 10.154C60.5542 8.73814 60.3166 7.46093 59.8413 6.32233C59.3661 5.17382 58.5938 4.20352 57.5443 3.40155C56.4948 2.59957 55.1384 1.98572 53.4751 1.54018C51.8118 1.10454 49.8019 0.886719 47.4356 0.886719H38.7922C36.6041 0.886719 34.8319 2.65898 34.8319 4.84708V17.0054H25.4162C25.4162 16.8272 25.4162 16.6589 25.4162 16.5104C25.4162 16.0747 25.1885 15.6688 24.8122 15.4411C24.3271 15.144 23.7529 14.9757 23.1489 14.9757C21.3767 14.9757 19.9312 16.4114 19.9312 18.1836C19.9312 19.9559 21.3668 21.4014 23.1489 21.4014C23.7628 21.4014 24.3271 21.2331 24.8122 20.9361C25.1885 20.7084 25.4162 20.3024 25.4162 19.8569V19.5202H34.8319V35.1538H48.5148C50.5643 35.1538 52.3959 34.8865 53.9899 34.3617C55.5939 33.837 56.9305 33.1043 58.0196 32.1736C59.1087 31.2429 59.9403 30.1439 60.5046 28.8964C61.069 27.639 61.3462 26.2826 61.3462 24.8271C61.3462 22.8965 60.8017 21.3222 59.7225 20.0846H59.7324ZM42.7723 6.83717H47.4257C48.3168 6.83717 49.089 6.90648 49.7425 7.04509C50.3959 7.1837 50.9306 7.42132 51.3563 7.74805C51.782 8.07478 52.089 8.51042 52.2969 9.05497C52.5048 9.59952 52.6038 10.2728 52.6038 11.0847C52.6038 11.8965 52.4751 12.6094 52.2177 13.154C51.9603 13.6985 51.584 14.1341 51.089 14.451C50.594 14.7678 49.9999 14.9856 49.287 15.1143C48.5841 15.2431 47.792 15.3025 46.9109 15.3025H42.7723V6.83717ZM53.287 26.2826C53.1484 26.8172 52.8909 27.2925 52.5147 27.7182C52.1385 28.144 51.6137 28.4905 50.9504 28.7578C50.287 29.0251 49.4256 29.1538 48.3762 29.1538H42.7822V20.6192H48.3366C49.3366 20.6192 50.1682 20.7084 50.8316 20.9064C51.4949 21.0945 52.0197 21.3618 52.4157 21.7084C52.8117 22.0549 53.0988 22.4806 53.2672 22.9757C53.4355 23.4806 53.5147 24.045 53.5147 24.6687C53.5147 25.2133 53.4454 25.7578 53.3068 26.2925L53.287 26.2826Z" fill="#3858F4"/>
</svg>
