<svg xmlns="http://www.w3.org/2000/svg" viewBox="10 6 76.7 76" fill="none">
  <rect x="8" y="4" width="80.7339" height="80" rx="8"/>
  <path d="M75.4597 55.0097V54.3395H75.2847L75.0824 54.8003L74.8823 54.3384H74.7068V55.0086H74.8315V54.5059L75.0204 54.9421H75.1495L75.3384 54.5048V55.0114H75.4614L75.4597 55.0097ZM74.3497 55.0097V54.4512H74.5732V54.3395H74.0015V54.4512H74.225V55.0097H74.3497Z" fill="#F79410"/>
  <path d="M55.5723 58.0345H40.4302V30.8442H55.5723V58.0345Z" fill="#FF5F00"/>
  <path d="M41.3903 44.2935C41.3881 41.6752 41.9818 39.0907 43.1267 36.7355C44.2715 34.3804 45.9374 32.3163 47.9983 30.6995C44.9518 28.299 41.1837 26.996 37.304 27.0015C27.7466 27.0015 20 34.7443 20 44.2957C20 53.8471 27.7483 61.586 37.3052 61.586C41.1843 61.5923 44.952 60.2901 47.9983 57.8903C45.9372 56.2731 44.2711 54.2085 43.1263 51.8529C41.9814 49.4972 41.3878 46.9122 41.3903 44.2935Z" fill="#EB001B"/>
  <path d="M75.9997 44.2943C75.9997 53.8456 68.2526 61.5868 58.6957 61.5868C54.8152 61.5933 51.046 60.2912 47.998 57.891C50.0575 56.2726 51.7224 54.208 52.8672 51.8529C54.012 49.4979 54.6068 46.9138 54.6068 44.2957C54.6068 41.6775 54.012 39.0934 52.8672 36.7384C51.7224 34.3833 50.0575 32.3187 47.998 30.7003C51.0453 28.2984 54.8146 26.9947 58.6957 27C68.2532 27 75.9992 34.7429 75.9992 44.2943" fill="#F79E1B"/>
</svg>
