<svg width="23" height="17" viewBox="0 0 23 17" fill="none" xmlns="http://www.w3.org/2000/svg">
<path d="M13.5 9.5C12.6667 9.5 11.9583 9.20833 11.375 8.625C10.7917 8.04167 10.5 7.33333 10.5 6.5C10.5 5.66667 10.7917 4.95833 11.375 4.375C11.9583 3.79167 12.6667 3.5 13.5 3.5C14.3333 3.5 15.0417 3.79167 15.625 4.375C16.2083 4.95833 16.5 5.66667 16.5 6.5C16.5 7.33333 16.2083 8.04167 15.625 8.625C15.0417 9.20833 14.3333 9.5 13.5 9.5ZM6.5 12.5C5.95 12.5 5.47933 12.304 5.088 11.912C4.696 11.5207 4.5 11.05 4.5 10.5V2.5C4.5 1.95 4.696 1.47933 5.088 1.088C5.47933 0.696 5.95 0.5 6.5 0.5H20.5C21.05 0.5 21.521 0.696 21.913 1.088C22.3043 1.47933 22.5 1.95 22.5 2.5V10.5C22.5 11.05 22.3043 11.5207 21.913 11.912C21.521 12.304 21.05 12.5 20.5 12.5H6.5ZM8.5 10.5H18.5C18.5 9.95 18.6957 9.479 19.087 9.087C19.479 8.69567 19.95 8.5 20.5 8.5V4.5C19.95 4.5 19.479 4.304 19.087 3.912C18.6957 3.52067 18.5 3.05 18.5 2.5H8.5C8.5 3.05 8.304 3.52067 7.912 3.912C7.52067 4.304 7.05 4.5 6.5 4.5V8.5C7.05 8.5 7.52067 8.69567 7.912 9.087C8.304 9.479 8.5 9.95 8.5 10.5ZM19.5 16.5H2.5C1.95 16.5 1.47933 16.3043 1.088 15.913C0.696 15.521 0.5 15.05 0.5 14.5V3.5H2.5V14.5H19.5V16.5Z" fill="#253E99"/>
</svg>
