<svg xmlns="http://www.w3.org/2000/svg" width="56" height="56" viewBox="0 0 56 56" fill="none">
  <path d="M43.6735 42.8365C42.5935 42.8404 41.5235 42.6303 40.5253 42.2183C39.527 41.8062 38.6203 41.2005 37.8575 40.436L29.4565 32.0296C29.1594 31.7455 28.7641 31.5869 28.353 31.5869C27.9418 31.5869 27.5465 31.7455 27.2494 32.0296L18.82 40.459C18.0577 41.2247 17.1512 41.8316 16.153 42.2449C15.1547 42.6581 14.0845 42.8695 13.0041 42.8667H11.3594L22.0048 53.5121C23.6014 55.1053 25.7648 56.0001 28.0203 56.0001C30.2758 56.0001 32.4392 55.1053 34.0358 53.5121L44.7025 42.8436L43.6735 42.8365Z" fill="#32BCAD"/>
  <path d="M13.0059 13.1289C14.0863 13.126 15.1566 13.3373 16.1548 13.7506C17.1531 14.1638 18.0595 14.7709 18.8218 15.5366L27.2512 23.9677C27.5442 24.2598 27.941 24.4239 28.3547 24.4239C28.7685 24.4239 29.1653 24.2598 29.4583 23.9677L37.8575 15.5685C38.6191 14.8018 39.5254 14.1941 40.5238 13.7805C41.5222 13.3669 42.5928 13.1557 43.6734 13.1591H44.6848L34.0181 2.49238C33.2282 1.70222 32.2904 1.07541 31.2583 0.647759C30.2261 0.220111 29.1198 0 28.0025 0C26.8853 0 25.779 0.220111 24.7468 0.647759C23.7147 1.07541 22.7769 1.70222 21.987 2.49238L11.3594 13.1289H13.0059Z" fill="#32BCAD"/>
  <path d="M53.5078 21.9835L47.062 15.5377C46.9166 15.5971 46.7613 15.6284 46.6042 15.6299H43.6732C42.148 15.6337 40.6859 16.2395 39.6049 17.3155L31.2057 25.7094C30.4492 26.4644 29.4241 26.8885 28.3554 26.8885C27.2866 26.8885 26.2615 26.4644 25.5051 25.7094L17.0739 17.2835C15.9932 16.2069 14.5311 15.6005 13.0056 15.5962H9.40747C9.25918 15.5929 9.11264 15.5634 8.97456 15.5093L2.48797 21.9835C0.894766 23.5801 0 25.7435 0 27.999C0 30.2545 0.894766 32.418 2.48797 34.0146L8.96036 40.487C9.09815 40.4318 9.24487 40.4023 9.39327 40.4H13.0056C14.531 40.3956 15.9931 39.7892 17.0739 38.7127L25.5033 30.2833C27.0274 28.761 29.6834 28.761 31.2057 30.2833L39.6049 38.6808C40.6859 39.7568 42.148 40.3625 43.6732 40.3663H46.6042C46.7613 40.3674 46.9167 40.3988 47.062 40.4586L53.5078 34.0128C54.2979 33.2229 54.9247 32.2851 55.3524 31.253C55.78 30.2208 56.0001 29.1145 56.0001 27.9972C56.0001 26.88 55.78 25.7737 55.3524 24.7415C54.9247 23.7094 54.2979 22.7716 53.5078 21.9817" fill="#32BCAD"/>
</svg>