<svg xmlns="http://www.w3.org/2000/svg" viewBox="19.73 15.75 58.06 56.25" fill="none">
  <path d="M50.2741 46.9873L50.3064 46.978C50.6116 46.8623 50.9538 46.9132 51.2128 47.1077C58.1494 52.3548 72.0317 45.9546 76.0411 41.8514C77.2665 40.5917 77.7937 38.8875 77.4978 37.1647C77.1925 35.4373 76.1104 34.0016 74.5289 33.219L73.6503 32.7929L73.6826 32.8763C71.4167 32.1677 68.8872 33.1171 67.1808 35.3909C66.8756 35.7892 66.538 36.2523 66.1726 36.7618C63.8003 40.0267 59.8326 45.4961 56.1933 46.0564C55.1667 46.2139 54.2418 45.9823 53.3631 45.3479C53.0163 45.0932 52.873 44.6439 53.0117 44.2457L53.0209 44.2133C53.1365 43.8752 53.3955 43.6297 53.6961 43.551C62.0755 41.3327 65.627 26.6752 64.8778 21.0808C64.6466 19.3487 63.6246 17.876 62.0801 17.0378C60.5263 16.1949 58.7182 16.1394 57.1135 16.8803L57.0025 16.9313C54.5331 18.0613 53.4279 20.8724 54.2371 23.9243C54.3666 24.4106 54.5239 24.957 54.695 25.5498C56.1516 30.644 58.5794 39.1699 53.747 40.7445C53.2706 40.8974 52.762 40.7167 52.4891 40.3231L52.4568 40.2768C52.2579 39.9943 52.2255 39.6238 52.3596 39.3043C55.6522 31.4406 46.3387 19.6498 41.5294 16.7831C40.0218 15.8847 38.2276 15.7504 36.5952 16.4265C34.9535 17.098 33.7743 18.4688 33.3627 20.1731L33.335 20.2889C32.6968 22.9054 34.2229 25.5174 37.1408 26.7863C37.6033 26.9901 38.1443 27.2124 38.7224 27.4532C43.6936 29.5233 52.0036 32.9874 50.0845 37.7528C49.918 38.165 49.4879 38.4197 49.0024 38.3965C48.637 38.3734 48.3041 38.1743 48.1422 37.8686C44.0173 30.3662 28.8678 30.2226 23.5729 32.1631C21.922 32.7697 20.7012 34.0803 20.2156 35.7568C19.7301 37.4472 20.0723 39.2024 21.1636 40.601L21.233 40.689C22.8978 42.8146 25.9175 43.2639 28.7384 41.8004C29.1869 41.5689 29.691 41.2956 30.2459 40.9946C35.009 38.4243 42.986 34.1267 45.5063 38.6929C45.7098 39.0542 45.6497 39.5173 45.3584 39.8415L45.326 39.8785C45.0763 40.1425 44.7109 40.2629 44.3595 40.1981C35.8738 38.6976 26.2874 50.331 24.5209 55.6475C23.966 57.3054 24.2435 59.0745 25.2701 60.4963C26.2967 61.9227 27.906 62.747 29.6771 62.7748H29.7881C29.7881 62.7748 29.839 62.7748 29.8621 62.7748C32.5488 62.7748 34.7454 60.7325 35.3466 57.662C35.4437 57.1665 35.5408 56.6061 35.6564 55.9902C36.3686 51.9796 37.5617 45.2645 40.66 43.2685C41.5571 42.6896 42.5513 42.5368 43.6889 42.8146C44.0126 42.8934 44.267 43.1759 44.3179 43.5139L44.3364 43.6019C44.3826 43.9076 44.2577 44.2179 44.0034 44.4263C37.2888 49.9512 40.5027 64.7754 43.6612 69.5501C44.6277 71.0089 46.1861 71.8981 47.948 71.9907C48.0497 71.9954 48.1515 72 48.2578 72C49.918 72 51.4487 71.2822 52.5215 69.9855L52.5816 69.9114C54.3065 67.832 54.0799 64.8218 52.0036 62.4275C51.6753 62.0477 51.2961 61.6216 50.8799 61.1539C48.1515 58.102 43.5919 52.9846 43.9433 49.3445C44.045 48.2794 44.5444 47.4226 45.4786 46.7141C45.7607 46.4964 46.1676 46.4779 46.4821 46.6631C46.7642 46.8252 46.9399 47.1309 46.9491 47.4736C47.1156 56.1245 60.8361 62.8813 66.5796 63.4185C68.3322 63.5806 70.0109 62.9276 71.1808 61.6309C72.3647 60.3203 72.8271 58.5836 72.4525 56.8655L72.4248 56.7451C71.856 54.1146 69.3588 52.4242 66.1542 52.5169C65.6501 52.5308 65.072 52.5632 64.4431 52.5956C60.3413 52.7947 53.4741 53.1374 50.8105 50.6042C50.0336 49.8679 49.6636 48.9509 49.6775 47.7977C49.6775 47.4365 49.918 47.1123 50.2741 46.9873Z" fill="#F2496B"/>
</svg>
